<svg xmlns="http://www.w3.org/2000/svg" xmlns:xlink="http://www.w3.org/1999/xlink" version="1.1" width="600" height="330" viewBox="0 0 600 330" xml:space="preserve" style="width:100%;height:100%">
<desc>Created with Fabric.js 1.6.0-rc.1</desc>
<defs></defs>
<g style="stroke:none;stroke-width:1;stroke-dasharray:none;stroke-linecap:butt;stroke-linejoin:miter;stroke-miterlimit:10;fill:none;fill-rule:nonzero;opacity:1" transform="translate(353 12)">
 <path d="M 31.5683 -198.5 C 31.5683 -198.5 47.4317 -198.5 47.4317 -198.5 C 52.2651 -198.5 57.0984 -203.3333 57.0984 -208.1667 C 57.0984 -208.1667 57.0984 -217.8333 57.0984 -217.8333 C 57.0984 -222.6667 52.2651 -227.5 47.4317 -227.5 C 47.4317 -227.5 31.5683 -227.5 31.5683 -227.5 C 26.7349 -227.5 21.9016 -222.6667 21.9016 -217.8333 C 21.9016 -217.8333 21.9016 -208.1667 21.9016 -208.1667 C 21.9016 -203.3333 26.7349 -198.5 31.5683 -198.5" style="stroke:#000000;stroke-width:0.5;stroke-dasharray:none;stroke-linecap:butt;stroke-linejoin:miter;stroke-miterlimit:10;fill:#bfefff;fill-rule:nonzero;opacity:1" transform=" matrix(1.3333333333333333 0 0 1.3333333333333333 5.333333333333333 309.3333333333333) " stroke-linecap="round"></path>
 <g transform=" matrix(1.3333333333333333 0 0 1.3333333333333333 5.333333333333333 309.3333333333333) ">
 <text font-family="Courier,monospace" font-size="16" font-weight="normal" style="stroke:none;stroke-width:1;stroke-dasharray:none;stroke-linecap:butt;stroke-linejoin:miter;stroke-miterlimit:10;fill:#000000;fill-rule:nonzero;opacity:1">
 <tspan x="29.9" y="-208.72" fill="#000000">12</tspan>
 </text>
 </g>
 <path d="M 11.6667 -132.5 C 11.6667 -132.5 21.3333 -132.5 21.3333 -132.5 C 26.1667 -132.5 31 -137.3333 31 -142.1667 C 31 -142.1667 31 -151.8333 31 -151.8333 C 31 -156.6667 26.1667 -161.5 21.3333 -161.5 C 21.3333 -161.5 11.6667 -161.5 11.6667 -161.5 C 6.8333 -161.5 2 -156.6667 2 -151.8333 C 2 -151.8333 2 -142.1667 2 -142.1667 C 2 -137.3333 6.8333 -132.5 11.6667 -132.5" style="stroke:#000000;stroke-width:0.5;stroke-dasharray:none;stroke-linecap:butt;stroke-linejoin:miter;stroke-miterlimit:10;fill:#bfefff;fill-rule:nonzero;opacity:1" transform=" matrix(1.3333333333333333 0 0 1.3333333333333333 5.333333333333333 309.3333333333333) " stroke-linecap="round"></path>
 <g transform=" matrix(1.3333333333333333 0 0 1.3333333333333333 5.333333333333333 309.3333333333333) ">
 <text font-family="Courier,monospace" font-size="16" font-weight="normal" style="stroke:none;stroke-width:1;stroke-dasharray:none;stroke-linecap:butt;stroke-linejoin:miter;stroke-miterlimit:10;fill:#000000;fill-rule:nonzero;opacity:1">
 <tspan x="11.5" y="-142.72" fill="#000000">7</tspan>
 </text>
 </g>
 <path d="M 34.3956 -198.3525 C 31.4178 -189.8077 27.6013 -178.8558 24.2582 -169.2626" style="stroke:#000000;stroke-width:1;stroke-dasharray:none;stroke-linecap:butt;stroke-linejoin:miter;stroke-miterlimit:10;fill:none;fill-rule:nonzero;opacity:1" transform=" matrix(1.3333333333333333 0 0 1.3333333333333333 5.333333333333333 309.3333333333333) " stroke-linecap="round"></path>
 <polygon points="26.87,-168.24 21.59,-161.61 21.58,-170.08 26.87,-168.24 " style="stroke:#000000;stroke-width:1;stroke-dasharray:none;stroke-linecap:butt;stroke-linejoin:miter;stroke-miterlimit:10;fill:#404040;fill-rule:nonzero;opacity:1" transform="  matrix(1.3333333333333333 0 0 1.3333333333333333 5.333333333333333 309.3333333333333) "></polygon>
 <path d="M 59.6667 -132.5 C 59.6667 -132.5 69.3333 -132.5 69.3333 -132.5 C 74.1667 -132.5 79 -137.3333 79 -142.1667 C 79 -142.1667 79 -151.8333 79 -151.8333 C 79 -156.6667 74.1667 -161.5 69.3333 -161.5 C 69.3333 -161.5 59.6667 -161.5 59.6667 -161.5 C 54.8333 -161.5 50 -156.6667 50 -151.8333 C 50 -151.8333 50 -142.1667 50 -142.1667 C 50 -137.3333 54.8333 -132.5 59.6667 -132.5" style="stroke:#000000;stroke-width:0.5;stroke-dasharray:none;stroke-linecap:butt;stroke-linejoin:miter;stroke-miterlimit:10;fill:#bfefff;fill-rule:nonzero;opacity:1" transform=" matrix(1.3333333333333333 0 0 1.3333333333333333 5.333333333333333 309.3333333333333) " stroke-linecap="round"></path>
 <g transform=" matrix(1.3333333333333333 0 0 1.3333333333333333 5.333333333333333 309.3333333333333) ">
 <text font-family="Courier,monospace" font-size="16" font-weight="normal" style="stroke:none;stroke-width:1;stroke-dasharray:none;stroke-linecap:butt;stroke-linejoin:miter;stroke-miterlimit:10;fill:#000000;fill-rule:nonzero;opacity:1">
 <tspan x="59.5" y="-142.72" fill="#000000">1</tspan>
 </text>
 </g>
 <path d="M 45.0483 -198.3525 C 48.285 -189.8077 52.4334 -178.8558 56.0672 -169.2626" style="stroke:#000000;stroke-width:1;stroke-dasharray:none;stroke-linecap:butt;stroke-linejoin:miter;stroke-miterlimit:10;fill:none;fill-rule:nonzero;opacity:1" transform=" matrix(1.3333333333333333 0 0 1.3333333333333333 5.333333333333333 309.3333333333333) " stroke-linecap="round"></path>
 <polygon points="58.75,-170.08 58.97,-161.61 53.51,-168.1 58.75,-170.08 " style="stroke:#000000;stroke-width:1;stroke-dasharray:none;stroke-linecap:butt;stroke-linejoin:miter;stroke-miterlimit:10;fill:#404040;fill-rule:nonzero;opacity:1" transform="  matrix(1.3333333333333333 0 0 1.3333333333333333 5.333333333333333 309.3333333333333) "></polygon>
 <path d="M 9.6667 -66.5 C 9.6667 -66.5 19.3333 -66.5 19.3333 -66.5 C 24.1667 -66.5 29 -71.3333 29 -76.1667 C 29 -76.1667 29 -85.8333 29 -85.8333 C 29 -90.6667 24.1667 -95.5 19.3333 -95.5 C 19.3333 -95.5 9.6667 -95.5 9.6667 -95.5 C 4.8333 -95.5 0 -90.6667 0 -85.8333 C 0 -85.8333 0 -76.1667 0 -76.1667 C 0 -71.3333 4.8333 -66.5 9.6667 -66.5" style="stroke:#000000;stroke-width:0.5;stroke-dasharray:none;stroke-linecap:butt;stroke-linejoin:miter;stroke-miterlimit:10;fill:#bfefff;fill-rule:nonzero;opacity:1" transform=" matrix(1.3333333333333333 0 0 1.3333333333333333 5.333333333333333 309.3333333333333) " stroke-linecap="round"></path>
 <g transform=" matrix(1.3333333333333333 0 0 1.3333333333333333 5.333333333333333 309.3333333333333) ">
 <text font-family="Courier,monospace" font-size="16" font-weight="normal" style="stroke:none;stroke-width:1;stroke-dasharray:none;stroke-linecap:butt;stroke-linejoin:miter;stroke-miterlimit:10;fill:#000000;fill-rule:nonzero;opacity:1">
 <tspan x="9.5" y="-76.72" fill="#000000">9</tspan>
 </text>
 </g>
 <path d="M 16.0561 -132.3525 C 15.8024 -123.9786 15.4786 -113.2929 15.1921 -103.8398" style="stroke:#000000;stroke-width:1;stroke-dasharray:none;stroke-linecap:butt;stroke-linejoin:miter;stroke-miterlimit:10;fill:none;fill-rule:nonzero;opacity:1" transform=" matrix(1.3333333333333333 0 0 1.3333333333333333 5.333333333333333 309.3333333333333) " stroke-linecap="round"></path>
 <polygon points="17.98,-103.52 14.94,-95.61 12.39,-103.69 17.98,-103.52 " style="stroke:#000000;stroke-width:1;stroke-dasharray:none;stroke-linecap:butt;stroke-linejoin:miter;stroke-miterlimit:10;fill:#404040;fill-rule:nonzero;opacity:1" transform="  matrix(1.3333333333333333 0 0 1.3333333333333333 5.333333333333333 309.3333333333333) "></polygon>
 <path d="M 56.5683 -66.5 C 56.5683 -66.5 72.4317 -66.5 72.4317 -66.5 C 77.2651 -66.5 82.0984 -71.3333 82.0984 -76.1667 C 82.0984 -76.1667 82.0984 -85.8333 82.0984 -85.8333 C 82.0984 -90.6667 77.2651 -95.5 72.4317 -95.5 C 72.4317 -95.5 56.5683 -95.5 56.5683 -95.5 C 51.7349 -95.5 46.9016 -90.6667 46.9016 -85.8333 C 46.9016 -85.8333 46.9016 -76.1667 46.9016 -76.1667 C 46.9016 -71.3333 51.7349 -66.5 56.5683 -66.5" style="stroke:#000000;stroke-width:0.5;stroke-dasharray:none;stroke-linecap:butt;stroke-linejoin:miter;stroke-miterlimit:10;fill:#bfefff;fill-rule:nonzero;opacity:1" transform=" matrix(1.3333333333333333 0 0 1.3333333333333333 5.333333333333333 309.3333333333333) " stroke-linecap="round"></path>
 <g transform=" matrix(1.3333333333333333 0 0 1.3333333333333333 5.333333333333333 309.3333333333333) ">
 <text font-family="Courier,monospace" font-size="16" font-weight="normal" style="stroke:none;stroke-width:1;stroke-dasharray:none;stroke-linecap:butt;stroke-linejoin:miter;stroke-miterlimit:10;fill:#000000;fill-rule:nonzero;opacity:1">
 <tspan x="54.9" y="-76.72" fill="#000000">10</tspan>
 </text>
 </g>
 <path d="M 64.5 -132.3525 C 64.5 -123.9786 64.5 -113.2929 64.5 -103.8398" style="stroke:#000000;stroke-width:1;stroke-dasharray:none;stroke-linecap:butt;stroke-linejoin:miter;stroke-miterlimit:10;fill:none;fill-rule:nonzero;opacity:1" transform=" matrix(1.3333333333333333 0 0 1.3333333333333333 5.333333333333333 309.3333333333333) " stroke-linecap="round"></path>
 <polygon points="67.3,-103.61 64.5,-95.61 61.7,-103.61 67.3,-103.61 " style="stroke:#000000;stroke-width:1;stroke-dasharray:none;stroke-linecap:butt;stroke-linejoin:miter;stroke-miterlimit:10;fill:#404040;fill-rule:nonzero;opacity:1" transform="  matrix(1.3333333333333333 0 0 1.3333333333333333 5.333333333333333 309.3333333333333) "></polygon>
 <path d="M 109.6667 -66.5 C 109.6667 -66.5 119.3333 -66.5 119.3333 -66.5 C 124.1667 -66.5 129 -71.3333 129 -76.1667 C 129 -76.1667 129 -85.8333 129 -85.8333 C 129 -90.6667 124.1667 -95.5 119.3333 -95.5 C 119.3333 -95.5 109.6667 -95.5 109.6667 -95.5 C 104.8333 -95.5 100 -90.6667 100 -85.8333 C 100 -85.8333 100 -76.1667 100 -76.1667 C 100 -71.3333 104.8333 -66.5 109.6667 -66.5" style="stroke:#000000;stroke-width:0.5;stroke-dasharray:none;stroke-linecap:butt;stroke-linejoin:miter;stroke-miterlimit:10;fill:#bfefff;fill-rule:nonzero;opacity:1" transform=" matrix(1.3333333333333333 0 0 1.3333333333333333 5.333333333333333 309.3333333333333) " stroke-linecap="round"></path>
 <g transform=" matrix(1.3333333333333333 0 0 1.3333333333333333 5.333333333333333 309.3333333333333) ">
 <text font-family="Courier,monospace" font-size="16" font-weight="normal" style="stroke:none;stroke-width:1;stroke-dasharray:none;stroke-linecap:butt;stroke-linejoin:miter;stroke-miterlimit:10;fill:#000000;fill-rule:nonzero;opacity:1">
 <tspan x="109.5" y="-76.72" fill="#000000">5</tspan>
 </text>
 </g>
 <path d="M 75.5966 -132.3525 C 82.3289 -123.4659 91.0335 -111.9758 98.5013 -102.1182" style="stroke:#000000;stroke-width:1;stroke-dasharray:none;stroke-linecap:butt;stroke-linejoin:miter;stroke-miterlimit:10;fill:none;fill-rule:nonzero;opacity:1" transform=" matrix(1.3333333333333333 0 0 1.3333333333333333 5.333333333333333 309.3333333333333) " stroke-linecap="round"></path>
 <polygon points="100.84,-103.67 103.43,-95.61 96.37,-100.29 100.84,-103.67 " style="stroke:#000000;stroke-width:1;stroke-dasharray:none;stroke-linecap:butt;stroke-linejoin:miter;stroke-miterlimit:10;fill:#404040;fill-rule:nonzero;opacity:1" transform="  matrix(1.3333333333333333 0 0 1.3333333333333333 5.333333333333333 309.3333333333333) "></polygon>
 <path d="M 29.5683 -0.5 C 29.5683 -0.5 45.4317 -0.5 45.4317 -0.5 C 50.2651 -0.5 55.0984 -5.3333 55.0984 -10.1667 C 55.0984 -10.1667 55.0984 -19.8333 55.0984 -19.8333 C 55.0984 -24.6667 50.2651 -29.5 45.4317 -29.5 C 45.4317 -29.5 29.5683 -29.5 29.5683 -29.5 C 24.7349 -29.5 19.9016 -24.6667 19.9016 -19.8333 C 19.9016 -19.8333 19.9016 -10.1667 19.9016 -10.1667 C 19.9016 -5.3333 24.7349 -0.5 29.5683 -0.5" style="stroke:#000000;stroke-width:0.5;stroke-dasharray:none;stroke-linecap:butt;stroke-linejoin:miter;stroke-miterlimit:10;fill:#bfefff;fill-rule:nonzero;opacity:1" transform=" matrix(1.3333333333333333 0 0 1.3333333333333333 5.333333333333333 309.3333333333333) " stroke-linecap="round"></path>
 <g transform=" matrix(1.3333333333333333 0 0 1.3333333333333333 5.333333333333333 309.3333333333333) ">
 <text font-family="Courier,monospace" font-size="16" font-weight="normal" style="stroke:none;stroke-width:1;stroke-dasharray:none;stroke-linecap:butt;stroke-linejoin:miter;stroke-miterlimit:10;fill:#000000;fill-rule:nonzero;opacity:1">
 <tspan x="27.9" y="-10.72" fill="#000000">20</tspan>
 </text>
 </g>
 <path d="M 58.5078 -66.3525 C 55.0122 -57.8077 50.5319 -46.8558 46.6074 -37.2626" style="stroke:#000000;stroke-width:1;stroke-dasharray:none;stroke-linecap:butt;stroke-linejoin:miter;stroke-miterlimit:10;fill:none;fill-rule:nonzero;opacity:1" transform=" matrix(1.3333333333333333 0 0 1.3333333333333333 5.333333333333333 309.3333333333333) " stroke-linecap="round"></path>
 <polygon points="49.1,-35.95 43.48,-29.61 43.91,-38.07 49.1,-35.95 " style="stroke:#000000;stroke-width:1;stroke-dasharray:none;stroke-linecap:butt;stroke-linejoin:miter;stroke-miterlimit:10;fill:#404040;fill-rule:nonzero;opacity:1" transform="  matrix(1.3333333333333333 0 0 1.3333333333333333 5.333333333333333 309.3333333333333) "></polygon>
 <path d="M 82.5683 -0.5 C 82.5683 -0.5 98.4317 -0.5 98.4317 -0.5 C 103.2651 -0.5 108.0984 -5.3333 108.0984 -10.1667 C 108.0984 -10.1667 108.0984 -19.8333 108.0984 -19.8333 C 108.0984 -24.6667 103.2651 -29.5 98.4317 -29.5 C 98.4317 -29.5 82.5683 -29.5 82.5683 -29.5 C 77.7349 -29.5 72.9016 -24.6667 72.9016 -19.8333 C 72.9016 -19.8333 72.9016 -10.1667 72.9016 -10.1667 C 72.9016 -5.3333 77.7349 -0.5 82.5683 -0.5" style="stroke:#000000;stroke-width:0.5;stroke-dasharray:none;stroke-linecap:butt;stroke-linejoin:miter;stroke-miterlimit:10;fill:#bfefff;fill-rule:nonzero;opacity:1" transform=" matrix(1.3333333333333333 0 0 1.3333333333333333 5.333333333333333 309.3333333333333) " stroke-linecap="round"></path>
 <g transform=" matrix(1.3333333333333333 0 0 1.3333333333333333 5.333333333333333 309.3333333333333) ">
 <text font-family="Courier,monospace" font-size="16" font-weight="normal" style="stroke:none;stroke-width:1;stroke-dasharray:none;stroke-linecap:butt;stroke-linejoin:miter;stroke-miterlimit:10;fill:#000000;fill-rule:nonzero;opacity:1">
 <tspan x="80.9" y="-10.72" fill="#000000">17</tspan>
 </text>
 </g>
 <path d="M 70.2702 -66.3525 C 73.6364 -57.8077 77.9507 -46.8558 81.7299 -37.2626" style="stroke:#000000;stroke-width:1;stroke-dasharray:none;stroke-linecap:butt;stroke-linejoin:miter;stroke-miterlimit:10;fill:none;fill-rule:nonzero;opacity:1" transform=" matrix(1.3333333333333333 0 0 1.3333333333333333 5.333333333333333 309.3333333333333) " stroke-linecap="round"></path>
 <polygon points="84.42,-38.08 84.75,-29.61 79.21,-36.02 84.42,-38.08 " style="stroke:#000000;stroke-width:1;stroke-dasharray:none;stroke-linecap:butt;stroke-linejoin:miter;stroke-miterlimit:10;fill:#404040;fill-rule:nonzero;opacity:1" transform="  matrix(1.3333333333333333 0 0 1.3333333333333333 5.333333333333333 309.3333333333333) "></polygon>
</g>
 <g transform="translate(290.56 124.33)">
 <text font-family="helvetica" font-size="16" font-weight="normal" style="stroke:none;stroke-width:1;stroke-dasharray:none;stroke-linecap:butt;stroke-linejoin:miter;stroke-miterlimit:10;fill:#000000;fill-rule:nonzero;opacity:1">
<tspan x="-26.69" y="-27.87" style="stroke:none;stroke-width:0;stroke-dasharray:none;stroke-linecap:butt;stroke-linejoin:miter;stroke-miterlimit:4;fill:#93c47d;opacity:1">[</tspan><tspan x="-22.24" y="-27.87" style="stroke:none;stroke-width:0;stroke-dasharray:none;stroke-linecap:butt;stroke-linejoin:miter;stroke-miterlimit:4;fill:#93c47d;opacity:1">[</tspan><tspan x="-17.8" y="-27.87" style="stroke:none;stroke-width:0;stroke-dasharray:none;stroke-linecap:butt;stroke-linejoin:miter;stroke-miterlimit:4;fill:#93c47d;opacity:1">1</tspan><tspan x="-8.9" y="-27.87" style="stroke:none;stroke-width:0;stroke-dasharray:none;stroke-linecap:butt;stroke-linejoin:miter;stroke-miterlimit:4;fill:#93c47d;opacity:1">2</tspan><tspan x="0" y="-27.87" font-family="helvetica" font-size="16" font-weight="normal" style="stroke:none;stroke-width:0;stroke-dasharray:none;stroke-linecap:butt;stroke-linejoin:miter;stroke-miterlimit:4;fill:#93c47d;opacity:1">]</tspan><tspan x="4.45" y="-27.87" font-family="helvetica" font-size="16" font-weight="normal" style="stroke:none;stroke-width:0;stroke-dasharray:none;stroke-linecap:butt;stroke-linejoin:miter;stroke-miterlimit:4;fill:#93c47d;opacity:1">,</tspan><tspan x="-26.69" y="-6.89" style="stroke:none;stroke-width:0;stroke-dasharray:none;stroke-linecap:butt;stroke-linejoin:miter;stroke-miterlimit:4;fill:#93c47d;opacity:1">[</tspan><tspan x="-22.24" y="-6.89" font-family="helvetica" font-size="16" font-weight="normal" style="stroke:none;stroke-width:0;stroke-dasharray:none;stroke-linecap:butt;stroke-linejoin:miter;stroke-miterlimit:4;fill:#93c47d;opacity:1">1</tspan><tspan x="-13.34" y="-6.89" font-family="helvetica" font-size="16" font-weight="normal" style="stroke:none;stroke-width:0;stroke-dasharray:none;stroke-linecap:butt;stroke-linejoin:miter;stroke-miterlimit:4;fill:#93c47d;opacity:1">,</tspan><tspan x="-8.9" y="-6.89" font-family="helvetica" font-size="16" font-weight="normal" style="stroke:none;stroke-width:0;stroke-dasharray:none;stroke-linecap:butt;stroke-linejoin:miter;stroke-miterlimit:4;fill:#93c47d;opacity:1">7</tspan><tspan x="0" y="-6.89" font-family="helvetica" font-size="16" font-weight="normal" style="stroke:none;stroke-width:0;stroke-dasharray:none;stroke-linecap:butt;stroke-linejoin:miter;stroke-miterlimit:4;fill:#93c47d;opacity:1">]</tspan><tspan x="4.45" y="-6.89" font-family="helvetica" font-size="16" font-weight="normal" style="stroke:none;stroke-width:0;stroke-dasharray:none;stroke-linecap:butt;stroke-linejoin:miter;stroke-miterlimit:4;fill:#93c47d;opacity:1">,</tspan><tspan x="-26.69" y="14.08" style="stroke:none;stroke-width:0;stroke-dasharray:none;stroke-linecap:butt;stroke-linejoin:miter;stroke-miterlimit:4;fill:#93c47d;opacity:1">[</tspan><tspan x="-22.24" y="14.08" style="stroke:none;stroke-width:0;stroke-dasharray:none;stroke-linecap:butt;stroke-linejoin:miter;stroke-miterlimit:4;fill:#93c47d;opacity:1">9</tspan><tspan x="-13.34" y="14.08" style="stroke:none;stroke-width:0;stroke-dasharray:none;stroke-linecap:butt;stroke-linejoin:miter;stroke-miterlimit:4;fill:#93c47d;opacity:1">,</tspan><tspan x="-8.9" y="14.08" style="stroke:none;stroke-width:0;stroke-dasharray:none;stroke-linecap:butt;stroke-linejoin:miter;stroke-miterlimit:4;fill:#93c47d;opacity:1">1</tspan><tspan x="0" y="14.08" style="stroke:none;stroke-width:0;stroke-dasharray:none;stroke-linecap:butt;stroke-linejoin:miter;stroke-miterlimit:4;fill:#93c47d;opacity:1">0</tspan><tspan x="8.9" y="14.08" style="stroke:none;stroke-width:0;stroke-dasharray:none;stroke-linecap:butt;stroke-linejoin:miter;stroke-miterlimit:4;fill:#93c47d;opacity:1">,</tspan><tspan x="13.34" y="14.08" font-family="helvetica" font-size="16" font-weight="normal" style="stroke:none;stroke-width:0;stroke-dasharray:none;stroke-linecap:butt;stroke-linejoin:miter;stroke-miterlimit:4;fill:#93c47d;opacity:1">5</tspan><tspan x="22.24" y="14.08" font-family="helvetica" font-size="16" font-weight="normal" style="stroke:none;stroke-width:0;stroke-dasharray:none;stroke-linecap:butt;stroke-linejoin:miter;stroke-miterlimit:4;fill:#93c47d;opacity:1">]</tspan><tspan x="-26.69" y="35.05" style="stroke:none;stroke-width:0;stroke-dasharray:none;stroke-linecap:butt;stroke-linejoin:miter;stroke-miterlimit:4;fill:#93c47d;opacity:1">[</tspan><tspan x="-22.24" y="35.05" style="stroke:none;stroke-width:0;stroke-dasharray:none;stroke-linecap:butt;stroke-linejoin:miter;stroke-miterlimit:4;fill:#93c47d;opacity:1">1</tspan><tspan x="-13.34" y="35.05" style="stroke:none;stroke-width:0;stroke-dasharray:none;stroke-linecap:butt;stroke-linejoin:miter;stroke-miterlimit:4;fill:#93c47d;opacity:1">7</tspan><tspan x="-4.45" y="35.05" style="stroke:none;stroke-width:0;stroke-dasharray:none;stroke-linecap:butt;stroke-linejoin:miter;stroke-miterlimit:4;fill:#93c47d;opacity:1">,</tspan><tspan x="0" y="35.05" style="stroke:none;stroke-width:0;stroke-dasharray:none;stroke-linecap:butt;stroke-linejoin:miter;stroke-miterlimit:4;fill:#93c47d;opacity:1">2</tspan><tspan x="8.9" y="35.05" style="stroke:none;stroke-width:0;stroke-dasharray:none;stroke-linecap:butt;stroke-linejoin:miter;stroke-miterlimit:4;fill:#93c47d;opacity:1">0</tspan><tspan x="17.8" y="35.05" font-family="helvetica" font-size="16" font-weight="normal" style="stroke:none;stroke-width:0;stroke-dasharray:none;stroke-linecap:butt;stroke-linejoin:miter;stroke-miterlimit:4;fill:#93c47d;opacity:1">]</tspan><tspan x="22.24" y="35.05" font-family="helvetica" font-size="16" font-weight="normal" style="stroke:none;stroke-width:0;stroke-dasharray:none;stroke-linecap:butt;stroke-linejoin:miter;stroke-miterlimit:4;fill:#93c47d;opacity:1">]</tspan> </text>
 </g>
 <g transform="translate(133.99 95.38)">
 <text font-family="helvetica" font-size="16" font-weight="normal" style="stroke:none;stroke-width:1;stroke-dasharray:none;stroke-linecap:butt;stroke-linejoin:miter;stroke-miterlimit:10;fill:#000000;fill-rule:nonzero;opacity:1">
<tspan x="-112.49" y="3.59" font-family="helvetica" font-size="16" font-weight="bold" style="stroke:none;stroke-width:0;stroke-dasharray:none;stroke-linecap:butt;stroke-linejoin:miter;stroke-miterlimit:4;fill:#000000;opacity:1">Z</tspan><tspan x="-102.71" y="3.59" font-family="helvetica" font-size="16" font-weight="bold" style="stroke:none;stroke-width:0;stroke-dasharray:none;stroke-linecap:butt;stroke-linejoin:miter;stroke-miterlimit:4;fill:#000000;opacity:1">i</tspan><tspan x="-98.27" y="3.59" font-family="helvetica" font-size="16" font-weight="bold" style="stroke:none;stroke-width:0;stroke-dasharray:none;stroke-linecap:butt;stroke-linejoin:miter;stroke-miterlimit:4;fill:#000000;opacity:1">g</tspan><tspan x="-88.5" y="3.59" font-family="helvetica" font-size="16" font-weight="bold" style="stroke:none;stroke-width:0;stroke-dasharray:none;stroke-linecap:butt;stroke-linejoin:miter;stroke-miterlimit:4;fill:#000000;opacity:1">z</tspan><tspan x="-80.5" y="3.59" font-family="helvetica" font-size="16" font-weight="bold" style="stroke:none;stroke-width:0;stroke-dasharray:none;stroke-linecap:butt;stroke-linejoin:miter;stroke-miterlimit:4;fill:#000000;opacity:1">a</tspan><tspan x="-71.6" y="3.59" font-family="helvetica" font-size="16" font-weight="bold" style="stroke:none;stroke-width:0;stroke-dasharray:none;stroke-linecap:butt;stroke-linejoin:miter;stroke-miterlimit:4;fill:#000000;opacity:1">g</tspan><tspan x="-61.82" y="3.59" font-family="helvetica" font-size="16" font-weight="bold" style="stroke:none;stroke-width:0;stroke-dasharray:none;stroke-linecap:butt;stroke-linejoin:miter;stroke-miterlimit:4;fill:#000000;opacity:1"> </tspan><tspan x="-57.38" y="3.59" font-family="helvetica" font-size="16" font-weight="bold" style="stroke:none;stroke-width:0;stroke-dasharray:none;stroke-linecap:butt;stroke-linejoin:miter;stroke-miterlimit:4;fill:#000000;opacity:1">L</tspan><tspan x="-47.61" y="3.59" font-family="helvetica" font-size="16" font-weight="bold" style="stroke:none;stroke-width:0;stroke-dasharray:none;stroke-linecap:butt;stroke-linejoin:miter;stroke-miterlimit:4;fill:#000000;opacity:1">e</tspan><tspan x="-38.71" y="3.59" font-family="helvetica" font-size="16" font-weight="bold" style="stroke:none;stroke-width:0;stroke-dasharray:none;stroke-linecap:butt;stroke-linejoin:miter;stroke-miterlimit:4;fill:#000000;opacity:1">v</tspan><tspan x="-29.81" y="3.59" font-family="helvetica" font-size="16" font-weight="bold" style="stroke:none;stroke-width:0;stroke-dasharray:none;stroke-linecap:butt;stroke-linejoin:miter;stroke-miterlimit:4;fill:#000000;opacity:1">e</tspan><tspan x="-20.91" y="3.59" font-family="helvetica" font-size="16" font-weight="bold" style="stroke:none;stroke-width:0;stroke-dasharray:none;stroke-linecap:butt;stroke-linejoin:miter;stroke-miterlimit:4;fill:#000000;opacity:1">l</tspan><tspan x="-16.46" y="3.59" font-family="helvetica" font-size="16" font-weight="bold" style="stroke:none;stroke-width:0;stroke-dasharray:none;stroke-linecap:butt;stroke-linejoin:miter;stroke-miterlimit:4;fill:#000000;opacity:1"> </tspan><tspan x="-12.02" y="3.59" font-family="helvetica" font-size="16" font-weight="bold" style="stroke:none;stroke-width:0;stroke-dasharray:none;stroke-linecap:butt;stroke-linejoin:miter;stroke-miterlimit:4;fill:#000000;opacity:1">O</tspan><tspan x="0.43" y="3.59" font-family="helvetica" font-size="16" font-weight="bold" style="stroke:none;stroke-width:0;stroke-dasharray:none;stroke-linecap:butt;stroke-linejoin:miter;stroke-miterlimit:4;fill:#000000;opacity:1">r</tspan><tspan x="6.65" y="3.59" font-family="helvetica" font-size="16" font-weight="bold" style="stroke:none;stroke-width:0;stroke-dasharray:none;stroke-linecap:butt;stroke-linejoin:miter;stroke-miterlimit:4;fill:#000000;opacity:1">d</tspan><tspan x="16.43" y="3.59" font-family="helvetica" font-size="16" font-weight="bold" style="stroke:none;stroke-width:0;stroke-dasharray:none;stroke-linecap:butt;stroke-linejoin:miter;stroke-miterlimit:4;fill:#000000;opacity:1">e</tspan><tspan x="25.32" y="3.59" font-family="helvetica" font-size="16" font-weight="bold" style="stroke:none;stroke-width:0;stroke-dasharray:none;stroke-linecap:butt;stroke-linejoin:miter;stroke-miterlimit:4;fill:#000000;opacity:1">r</tspan><tspan x="31.55" y="3.59" font-family="helvetica" font-size="16" font-weight="bold" style="stroke:none;stroke-width:0;stroke-dasharray:none;stroke-linecap:butt;stroke-linejoin:miter;stroke-miterlimit:4;fill:#000000;opacity:1"> </tspan><tspan x="36" y="3.59" font-family="helvetica" font-size="16" font-weight="bold" style="stroke:none;stroke-width:0;stroke-dasharray:none;stroke-linecap:butt;stroke-linejoin:miter;stroke-miterlimit:4;fill:#000000;opacity:1">T</tspan><tspan x="45.77" y="3.59" font-family="helvetica" font-size="16" font-weight="bold" style="stroke:none;stroke-width:0;stroke-dasharray:none;stroke-linecap:butt;stroke-linejoin:miter;stroke-miterlimit:4;fill:#000000;opacity:1">r</tspan><tspan x="52" y="3.59" font-family="helvetica" font-size="16" font-weight="bold" style="stroke:none;stroke-width:0;stroke-dasharray:none;stroke-linecap:butt;stroke-linejoin:miter;stroke-miterlimit:4;fill:#000000;opacity:1">a</tspan><tspan x="60.89" y="3.59" font-family="helvetica" font-size="16" font-weight="bold" style="stroke:none;stroke-width:0;stroke-dasharray:none;stroke-linecap:butt;stroke-linejoin:miter;stroke-miterlimit:4;fill:#000000;opacity:1">v</tspan><tspan x="69.79" y="3.59" font-family="helvetica" font-size="16" font-weight="bold" style="stroke:none;stroke-width:0;stroke-dasharray:none;stroke-linecap:butt;stroke-linejoin:miter;stroke-miterlimit:4;fill:#000000;opacity:1">e</tspan><tspan x="78.69" y="3.59" font-family="helvetica" font-size="16" font-weight="bold" style="stroke:none;stroke-width:0;stroke-dasharray:none;stroke-linecap:butt;stroke-linejoin:miter;stroke-miterlimit:4;fill:#000000;opacity:1">r</tspan><tspan x="84.92" y="3.59" font-family="helvetica" font-size="16" font-weight="bold" style="stroke:none;stroke-width:0;stroke-dasharray:none;stroke-linecap:butt;stroke-linejoin:miter;stroke-miterlimit:4;fill:#000000;opacity:1">s</tspan><tspan x="93.82" y="3.59" font-family="helvetica" font-size="16" font-weight="bold" style="stroke:none;stroke-width:0;stroke-dasharray:none;stroke-linecap:butt;stroke-linejoin:miter;stroke-miterlimit:4;fill:#000000;opacity:1">a</tspan><tspan x="102.71" y="3.59" font-family="helvetica" font-size="16" font-weight="bold" style="stroke:none;stroke-width:0;stroke-dasharray:none;stroke-linecap:butt;stroke-linejoin:miter;stroke-miterlimit:4;fill:#000000;opacity:1">l</tspan><tspan x="107.16" y="3.59" font-family="helvetica" font-size="16" font-weight="bold" style="stroke:none;stroke-width:0;stroke-dasharray:none;stroke-linecap:butt;stroke-linejoin:miter;stroke-miterlimit:4;fill:#000000;opacity:1">:</tspan> </text>
 </g>
</svg>