<svg xmlns="http://www.w3.org/2000/svg" xmlns:xlink="http://www.w3.org/1999/xlink" version="1.1" width="800" height="320" viewBox="0 0 800 320" xml:space="preserve" style="width:100%;height:100%">
<desc>Created with Fabric.js 1.6.0-rc.1</desc>
<defs></defs>
 <g transform="translate(48.74 27.99)">
 <text font-family="helvetica" font-size="16" font-weight="normal" style="stroke:none;stroke-width:1;stroke-dasharray:none;stroke-linecap:butt;stroke-linejoin:miter;stroke-miterlimit:10;fill:#000000;fill-rule:nonzero;opacity:1">
<tspan x="-42.24" y="3.59" font-weight="bold" style="stroke:none;stroke-width:0;stroke-dasharray:none;stroke-linecap:butt;stroke-linejoin:miter;stroke-miterlimit:4;fill:#000000;opacity:1">E</tspan><tspan x="-31.57" y="3.59" font-weight="bold" style="stroke:none;stroke-width:0;stroke-dasharray:none;stroke-linecap:butt;stroke-linejoin:miter;stroke-miterlimit:4;fill:#000000;opacity:1">x</tspan><tspan x="-22.67" y="3.59" font-weight="bold" style="stroke:none;stroke-width:0;stroke-dasharray:none;stroke-linecap:butt;stroke-linejoin:miter;stroke-miterlimit:4;fill:#000000;opacity:1">a</tspan><tspan x="-13.77" y="3.59" font-weight="bold" style="stroke:none;stroke-width:0;stroke-dasharray:none;stroke-linecap:butt;stroke-linejoin:miter;stroke-miterlimit:4;fill:#000000;opacity:1">m</tspan><tspan x="0.45" y="3.59" font-weight="bold" style="stroke:none;stroke-width:0;stroke-dasharray:none;stroke-linecap:butt;stroke-linejoin:miter;stroke-miterlimit:4;fill:#000000;opacity:1">p</tspan><tspan x="10.23" y="3.59" font-weight="bold" style="stroke:none;stroke-width:0;stroke-dasharray:none;stroke-linecap:butt;stroke-linejoin:miter;stroke-miterlimit:4;fill:#000000;opacity:1">l</tspan><tspan x="14.67" y="3.59" font-weight="bold" style="stroke:none;stroke-width:0;stroke-dasharray:none;stroke-linecap:butt;stroke-linejoin:miter;stroke-miterlimit:4;fill:#000000;opacity:1">e</tspan><tspan x="23.57" y="3.59" font-weight="bold" style="stroke:none;stroke-width:0;stroke-dasharray:none;stroke-linecap:butt;stroke-linejoin:miter;stroke-miterlimit:4;fill:#000000;opacity:1"> </tspan><tspan x="28.02" y="3.59" font-weight="bold" style="stroke:none;stroke-width:0;stroke-dasharray:none;stroke-linecap:butt;stroke-linejoin:miter;stroke-miterlimit:4;fill:#000000;opacity:1">2</tspan><tspan x="36.91" y="3.59" font-family="helvetica" font-size="16" font-weight="bold" style="stroke:none;stroke-width:0;stroke-dasharray:none;stroke-linecap:butt;stroke-linejoin:miter;stroke-miterlimit:4;fill:#000000;opacity:1">:</tspan> </text>
 </g>
<g style="stroke:none;stroke-width:1;stroke-dasharray:none;stroke-linecap:butt;stroke-linejoin:miter;stroke-miterlimit:10;fill:none;fill-rule:nonzero;opacity:1" transform="translate(425.67 0)">
 <path d="M 79.6667 -198.5 C 79.6667 -198.5 89.3333 -198.5 89.3333 -198.5 C 94.1667 -198.5 99 -203.3333 99 -208.1667 C 99 -208.1667 99 -217.8333 99 -217.8333 C 99 -222.6667 94.1667 -227.5 89.3333 -227.5 C 89.3333 -227.5 79.6667 -227.5 79.6667 -227.5 C 74.8333 -227.5 70 -222.6667 70 -217.8333 C 70 -217.8333 70 -208.1667 70 -208.1667 C 70 -203.3333 74.8333 -198.5 79.6667 -198.5" style="stroke:#000000;stroke-width:0.5;stroke-dasharray:none;stroke-linecap:butt;stroke-linejoin:miter;stroke-miterlimit:10;fill:#bfefff;fill-rule:nonzero;opacity:1" transform=" matrix(1.3333333333333335 0 0 1.3333333333333335 5.333333333333334 309.33333333333337) " stroke-linecap="round"></path>
 <g transform=" matrix(1.3333333333333335 0 0 1.3333333333333335 5.333333333333334 309.33333333333337) ">
 <text font-family="Courier,monospace" font-size="16" font-weight="normal" style="stroke:none;stroke-width:1;stroke-dasharray:none;stroke-linecap:butt;stroke-linejoin:miter;stroke-miterlimit:10;fill:#000000;fill-rule:nonzero;opacity:1">
 <tspan x="79.5" y="-208.72" fill="#000000">1</tspan>
 </text>
 </g>
 <path d="M 56.6667 -132.5 C 56.6667 -132.5 66.3333 -132.5 66.3333 -132.5 C 71.1667 -132.5 76 -137.3333 76 -142.1667 C 76 -142.1667 76 -151.8333 76 -151.8333 C 76 -156.6667 71.1667 -161.5 66.3333 -161.5 C 66.3333 -161.5 56.6667 -161.5 56.6667 -161.5 C 51.8333 -161.5 47 -156.6667 47 -151.8333 C 47 -151.8333 47 -142.1667 47 -142.1667 C 47 -137.3333 51.8333 -132.5 56.6667 -132.5" style="stroke:#000000;stroke-width:0.5;stroke-dasharray:none;stroke-linecap:butt;stroke-linejoin:miter;stroke-miterlimit:10;fill:#bfefff;fill-rule:nonzero;opacity:1" transform=" matrix(1.3333333333333335 0 0 1.3333333333333335 5.333333333333334 309.33333333333337) " stroke-linecap="round"></path>
 <g transform=" matrix(1.3333333333333335 0 0 1.3333333333333335 5.333333333333334 309.33333333333337) ">
 <text font-family="Courier,monospace" font-size="16" font-weight="normal" style="stroke:none;stroke-width:1;stroke-dasharray:none;stroke-linecap:butt;stroke-linejoin:miter;stroke-miterlimit:10;fill:#000000;fill-rule:nonzero;opacity:1">
 <tspan x="56.5" y="-142.72" fill="#000000">2</tspan>
 </text>
 </g>
 <path d="M 79.3956 -198.3525 C 76.4178 -189.8077 72.6013 -178.8558 69.2582 -169.2626" style="stroke:#000000;stroke-width:1;stroke-dasharray:none;stroke-linecap:butt;stroke-linejoin:miter;stroke-miterlimit:10;fill:none;fill-rule:nonzero;opacity:1" transform=" matrix(1.3333333333333335 0 0 1.3333333333333335 5.333333333333334 309.33333333333337) " stroke-linecap="round"></path>
 <polygon points="71.87,-168.24 66.59,-161.61 66.58,-170.08 71.87,-168.24 " style="stroke:#000000;stroke-width:1;stroke-dasharray:none;stroke-linecap:butt;stroke-linejoin:miter;stroke-miterlimit:10;fill:#404040;fill-rule:nonzero;opacity:1" transform="  matrix(1.3333333333333335 0 0 1.3333333333333335 5.333333333333334 309.33333333333337) "></polygon>
 <path d="M 103.6667 -132.5 C 103.6667 -132.5 113.3333 -132.5 113.3333 -132.5 C 118.1667 -132.5 123 -137.3333 123 -142.1667 C 123 -142.1667 123 -151.8333 123 -151.8333 C 123 -156.6667 118.1667 -161.5 113.3333 -161.5 C 113.3333 -161.5 103.6667 -161.5 103.6667 -161.5 C 98.8333 -161.5 94 -156.6667 94 -151.8333 C 94 -151.8333 94 -142.1667 94 -142.1667 C 94 -137.3333 98.8333 -132.5 103.6667 -132.5" style="stroke:#000000;stroke-width:0.5;stroke-dasharray:none;stroke-linecap:butt;stroke-linejoin:miter;stroke-miterlimit:10;fill:#d5a6bd;fill-rule:nonzero;opacity:1" transform=" matrix(1.3333333333333335 0 0 1.3333333333333335 5.333333333333334 309.33333333333337) " stroke-linecap="round"></path>
 <g transform=" matrix(1.3333333333333335 0 0 1.3333333333333335 5.333333333333334 309.33333333333337) ">
 <text font-family="Courier,monospace" font-size="16" font-weight="normal" style="stroke:none;stroke-width:1;stroke-dasharray:none;stroke-linecap:butt;stroke-linejoin:miter;stroke-miterlimit:10;fill:#000000;fill-rule:nonzero;opacity:1">
 <tspan x="103.5" y="-142.72" fill="#000000">3</tspan>
 </text>
 </g>
 <path d="M 89.8264 -198.3525 C 92.9336 -189.8077 96.9161 -178.8558 100.4045 -169.2626" style="stroke:#000000;stroke-width:1;stroke-dasharray:none;stroke-linecap:butt;stroke-linejoin:miter;stroke-miterlimit:10;fill:none;fill-rule:nonzero;opacity:1" transform=" matrix(1.3333333333333335 0 0 1.3333333333333335 5.333333333333334 309.33333333333337) " stroke-linecap="round"></path>
 <polygon points="103.09,-170.08 103.19,-161.61 97.82,-168.17 103.09,-170.08 " style="stroke:#000000;stroke-width:1;stroke-dasharray:none;stroke-linecap:butt;stroke-linejoin:miter;stroke-miterlimit:10;fill:#404040;fill-rule:nonzero;opacity:1" transform="  matrix(1.3333333333333335 0 0 1.3333333333333335 5.333333333333334 309.33333333333337) "></polygon>
 <path d="M 9.6667 -66.5 C 9.6667 -66.5 19.3333 -66.5 19.3333 -66.5 C 24.1667 -66.5 29 -71.3333 29 -76.1667 C 29 -76.1667 29 -85.8333 29 -85.8333 C 29 -90.6667 24.1667 -95.5 19.3333 -95.5 C 19.3333 -95.5 9.6667 -95.5 9.6667 -95.5 C 4.8333 -95.5 0 -90.6667 0 -85.8333 C 0 -85.8333 0 -76.1667 0 -76.1667 C 0 -71.3333 4.8333 -66.5 9.6667 -66.5" style="stroke:#000000;stroke-width:0.5;stroke-dasharray:none;stroke-linecap:butt;stroke-linejoin:miter;stroke-miterlimit:10;fill:#bfefff;fill-rule:nonzero;opacity:1" transform=" matrix(1.3333333333333335 0 0 1.3333333333333335 5.333333333333334 309.33333333333337) " stroke-linecap="round"></path>
 <g transform=" matrix(1.3333333333333335 0 0 1.3333333333333335 5.333333333333334 309.33333333333337) ">
 <text font-family="Courier,monospace" font-size="16" font-weight="normal" style="stroke:none;stroke-width:1;stroke-dasharray:none;stroke-linecap:butt;stroke-linejoin:miter;stroke-miterlimit:10;fill:#000000;fill-rule:nonzero;opacity:1">
 <tspan x="9.5" y="-76.72" fill="#000000">1</tspan>
 </text>
 </g>
 <path d="M 51.0692 -132.3525 C 44.8017 -123.5513 36.7157 -112.1965 29.7415 -102.403" style="stroke:#000000;stroke-width:1;stroke-dasharray:none;stroke-linecap:butt;stroke-linejoin:miter;stroke-miterlimit:10;fill:none;fill-rule:nonzero;opacity:1" transform=" matrix(1.3333333333333335 0 0 1.3333333333333335 5.333333333333334 309.33333333333337) " stroke-linecap="round"></path>
 <polygon points="31.82,-100.5 24.9,-95.61 27.26,-103.75 31.82,-100.5 " style="stroke:#000000;stroke-width:1;stroke-dasharray:none;stroke-linecap:butt;stroke-linejoin:miter;stroke-miterlimit:10;fill:#404040;fill-rule:nonzero;opacity:1" transform="  matrix(1.3333333333333335 0 0 1.3333333333333335 5.333333333333334 309.33333333333337) "></polygon>
 <path d="M 56.6667 -66.5 C 56.6667 -66.5 66.3333 -66.5 66.3333 -66.5 C 71.1667 -66.5 76 -71.3333 76 -76.1667 C 76 -76.1667 76 -85.8333 76 -85.8333 C 76 -90.6667 71.1667 -95.5 66.3333 -95.5 C 66.3333 -95.5 56.6667 -95.5 56.6667 -95.5 C 51.8333 -95.5 47 -90.6667 47 -85.8333 C 47 -85.8333 47 -76.1667 47 -76.1667 C 47 -71.3333 51.8333 -66.5 56.6667 -66.5" style="stroke:#000000;stroke-width:0.5;stroke-dasharray:none;stroke-linecap:butt;stroke-linejoin:miter;stroke-miterlimit:10;fill:#bfefff;fill-rule:nonzero;opacity:1" transform=" matrix(1.3333333333333335 0 0 1.3333333333333335 5.333333333333334 309.33333333333337) " stroke-linecap="round"></path>
 <g transform=" matrix(1.3333333333333335 0 0 1.3333333333333335 5.333333333333334 309.33333333333337) ">
 <text font-family="Courier,monospace" font-size="16" font-weight="normal" style="stroke:none;stroke-width:1;stroke-dasharray:none;stroke-linecap:butt;stroke-linejoin:miter;stroke-miterlimit:10;fill:#000000;fill-rule:nonzero;opacity:1">
 <tspan x="56.5" y="-76.72" fill="#000000">3</tspan>
 </text>
 </g>
 <path d="M 61.5 -132.3525 C 61.5 -123.9786 61.5 -113.2929 61.5 -103.8398" style="stroke:#000000;stroke-width:1;stroke-dasharray:none;stroke-linecap:butt;stroke-linejoin:miter;stroke-miterlimit:10;fill:none;fill-rule:nonzero;opacity:1" transform=" matrix(1.3333333333333335 0 0 1.3333333333333335 5.333333333333334 309.33333333333337) " stroke-linecap="round"></path>
 <polygon points="64.3,-103.61 61.5,-95.61 58.7,-103.61 64.3,-103.61 " style="stroke:#000000;stroke-width:1;stroke-dasharray:none;stroke-linecap:butt;stroke-linejoin:miter;stroke-miterlimit:10;fill:#404040;fill-rule:nonzero;opacity:1" transform="  matrix(1.3333333333333335 0 0 1.3333333333333335 5.333333333333334 309.33333333333337) "></polygon>
 <path d="M 103.6667 -66.5 C 103.6667 -66.5 113.3333 -66.5 113.3333 -66.5 C 118.1667 -66.5 123 -71.3333 123 -76.1667 C 123 -76.1667 123 -85.8333 123 -85.8333 C 123 -90.6667 118.1667 -95.5 113.3333 -95.5 C 113.3333 -95.5 103.6667 -95.5 103.6667 -95.5 C 98.8333 -95.5 94 -90.6667 94 -85.8333 C 94 -85.8333 94 -76.1667 94 -76.1667 C 94 -71.3333 98.8333 -66.5 103.6667 -66.5" style="stroke:#000000;stroke-width:0.5;stroke-dasharray:none;stroke-linecap:butt;stroke-linejoin:miter;stroke-miterlimit:10;fill:#d5a6bd;fill-rule:nonzero;opacity:1" transform=" matrix(1.3333333333333335 0 0 1.3333333333333335 5.333333333333334 309.33333333333337) " stroke-linecap="round"></path>
 <g transform=" matrix(1.3333333333333335 0 0 1.3333333333333335 5.333333333333334 309.33333333333337) ">
 <text font-family="Courier,monospace" font-size="16" font-weight="normal" style="stroke:none;stroke-width:1;stroke-dasharray:none;stroke-linecap:butt;stroke-linejoin:miter;stroke-miterlimit:10;fill:#000000;fill-rule:nonzero;opacity:1">
 <tspan x="103.5" y="-76.72" fill="#000000">5</tspan>
 </text>
 </g>
 <path d="M 108.5 -132.3525 C 108.5 -123.9786 108.5 -113.2929 108.5 -103.8398" style="stroke:#000000;stroke-width:1;stroke-dasharray:none;stroke-linecap:butt;stroke-linejoin:miter;stroke-miterlimit:10;fill:none;fill-rule:nonzero;opacity:1" transform=" matrix(1.3333333333333335 0 0 1.3333333333333335 5.333333333333334 309.33333333333337) " stroke-linecap="round"></path>
 <polygon points="111.3,-103.61 108.5,-95.61 105.7,-103.61 111.3,-103.61 " style="stroke:#000000;stroke-width:1;stroke-dasharray:none;stroke-linecap:butt;stroke-linejoin:miter;stroke-miterlimit:10;fill:#404040;fill-rule:nonzero;opacity:1" transform="  matrix(1.3333333333333335 0 0 1.3333333333333335 5.333333333333334 309.33333333333337) "></polygon>
 <path d="M 150.6667 -66.5 C 150.6667 -66.5 160.3333 -66.5 160.3333 -66.5 C 165.1667 -66.5 170 -71.3333 170 -76.1667 C 170 -76.1667 170 -85.8333 170 -85.8333 C 170 -90.6667 165.1667 -95.5 160.3333 -95.5 C 160.3333 -95.5 150.6667 -95.5 150.6667 -95.5 C 145.8333 -95.5 141 -90.6667 141 -85.8333 C 141 -85.8333 141 -76.1667 141 -76.1667 C 141 -71.3333 145.8333 -66.5 150.6667 -66.5" style="stroke:#000000;stroke-width:0.5;stroke-dasharray:none;stroke-linecap:butt;stroke-linejoin:miter;stroke-miterlimit:10;fill:#d5a6bd;fill-rule:nonzero;opacity:1" transform=" matrix(1.3333333333333335 0 0 1.3333333333333335 5.333333333333334 309.33333333333337) " stroke-linecap="round"></path>
 <g transform=" matrix(1.3333333333333335 0 0 1.3333333333333335 5.333333333333334 309.33333333333337) ">
 <text font-family="Courier,monospace" font-size="16" font-weight="normal" style="stroke:none;stroke-width:1;stroke-dasharray:none;stroke-linecap:butt;stroke-linejoin:miter;stroke-miterlimit:10;fill:#000000;fill-rule:nonzero;opacity:1">
 <tspan x="150.5" y="-76.72" fill="#000000">6</tspan>
 </text>
 </g>
 <path d="M 118.9308 -132.3525 C 125.1983 -123.5513 133.2843 -112.1965 140.2585 -102.403" style="stroke:#000000;stroke-width:1;stroke-dasharray:none;stroke-linecap:butt;stroke-linejoin:miter;stroke-miterlimit:10;fill:none;fill-rule:nonzero;opacity:1" transform=" matrix(1.3333333333333335 0 0 1.3333333333333335 5.333333333333334 309.33333333333337) " stroke-linecap="round"></path>
 <polygon points="142.74,-103.75 145.1,-95.61 138.18,-100.5 142.74,-103.75 " style="stroke:#000000;stroke-width:1;stroke-dasharray:none;stroke-linecap:butt;stroke-linejoin:miter;stroke-miterlimit:10;fill:#404040;fill-rule:nonzero;opacity:1" transform="  matrix(1.3333333333333335 0 0 1.3333333333333335 5.333333333333334 309.33333333333337) "></polygon>
 <path d="M 56.6667 -0.5 C 56.6667 -0.5 66.3333 -0.5 66.3333 -0.5 C 71.1667 -0.5 76 -5.3333 76 -10.1667 C 76 -10.1667 76 -19.8333 76 -19.8333 C 76 -24.6667 71.1667 -29.5 66.3333 -29.5 C 66.3333 -29.5 56.6667 -29.5 56.6667 -29.5 C 51.8333 -29.5 47 -24.6667 47 -19.8333 C 47 -19.8333 47 -10.1667 47 -10.1667 C 47 -5.3333 51.8333 -0.5 56.6667 -0.5" style="stroke:#000000;stroke-width:0.5;stroke-dasharray:none;stroke-linecap:butt;stroke-linejoin:miter;stroke-miterlimit:10;fill:#bfefff;fill-rule:nonzero;opacity:1" transform=" matrix(1.3333333333333335 0 0 1.3333333333333335 5.333333333333334 309.33333333333337) " stroke-linecap="round"></path>
 <g transform=" matrix(1.3333333333333335 0 0 1.3333333333333335 5.333333333333334 309.33333333333337) ">
 <text font-family="Courier,monospace" font-size="16" font-weight="normal" style="stroke:none;stroke-width:1;stroke-dasharray:none;stroke-linecap:butt;stroke-linejoin:miter;stroke-miterlimit:10;fill:#000000;fill-rule:nonzero;opacity:1">
 <tspan x="56.5" y="-10.72" fill="#000000">7</tspan>
 </text>
 </g>
 <path d="M 98.0692 -66.3525 C 91.8017 -57.5513 83.7157 -46.1965 76.7415 -36.403" style="stroke:#000000;stroke-width:1;stroke-dasharray:none;stroke-linecap:butt;stroke-linejoin:miter;stroke-miterlimit:10;fill:none;fill-rule:nonzero;opacity:1" transform=" matrix(1.3333333333333335 0 0 1.3333333333333335 5.333333333333334 309.33333333333337) " stroke-linecap="round"></path>
 <polygon points="78.82,-34.5 71.9,-29.61 74.26,-37.75 78.82,-34.5 " style="stroke:#000000;stroke-width:1;stroke-dasharray:none;stroke-linecap:butt;stroke-linejoin:miter;stroke-miterlimit:10;fill:#404040;fill-rule:nonzero;opacity:1" transform="  matrix(1.3333333333333335 0 0 1.3333333333333335 5.333333333333334 309.33333333333337) "></polygon>
 <path d="M 103.6667 -0.5 C 103.6667 -0.5 113.3333 -0.5 113.3333 -0.5 C 118.1667 -0.5 123 -5.3333 123 -10.1667 C 123 -10.1667 123 -19.8333 123 -19.8333 C 123 -24.6667 118.1667 -29.5 113.3333 -29.5 C 113.3333 -29.5 103.6667 -29.5 103.6667 -29.5 C 98.8333 -29.5 94 -24.6667 94 -19.8333 C 94 -19.8333 94 -10.1667 94 -10.1667 C 94 -5.3333 98.8333 -0.5 103.6667 -0.5" style="stroke:#000000;stroke-width:0.5;stroke-dasharray:none;stroke-linecap:butt;stroke-linejoin:miter;stroke-miterlimit:10;fill:#d5a6bd;fill-rule:nonzero;opacity:1" transform=" matrix(1.3333333333333335 0 0 1.3333333333333335 5.333333333333334 309.33333333333337) " stroke-linecap="round"></path>
 <g transform=" matrix(1.3333333333333335 0 0 1.3333333333333335 5.333333333333334 309.33333333333337) ">
 <text font-family="Courier,monospace" font-size="16" font-weight="normal" style="stroke:none;stroke-width:1;stroke-dasharray:none;stroke-linecap:butt;stroke-linejoin:miter;stroke-miterlimit:10;fill:#000000;fill-rule:nonzero;opacity:1">
 <tspan x="103.5" y="-10.72" fill="#000000">8</tspan>
 </text>
 </g>
 <path d="M 108.5 -66.3525 C 108.5 -57.9786 108.5 -47.2929 108.5 -37.8398" style="stroke:#000000;stroke-width:1;stroke-dasharray:none;stroke-linecap:butt;stroke-linejoin:miter;stroke-miterlimit:10;fill:none;fill-rule:nonzero;opacity:1" transform=" matrix(1.3333333333333335 0 0 1.3333333333333335 5.333333333333334 309.33333333333337) " stroke-linecap="round"></path>
 <polygon points="111.3,-37.61 108.5,-29.61 105.7,-37.61 111.3,-37.61 " style="stroke:#000000;stroke-width:1;stroke-dasharray:none;stroke-linecap:butt;stroke-linejoin:miter;stroke-miterlimit:10;fill:#404040;fill-rule:nonzero;opacity:1" transform="  matrix(1.3333333333333335 0 0 1.3333333333333335 5.333333333333334 309.33333333333337) "></polygon>
 <path d="M 150.6667 -0.5 C 150.6667 -0.5 160.3333 -0.5 160.3333 -0.5 C 165.1667 -0.5 170 -5.3333 170 -10.1667 C 170 -10.1667 170 -19.8333 170 -19.8333 C 170 -24.6667 165.1667 -29.5 160.3333 -29.5 C 160.3333 -29.5 150.6667 -29.5 150.6667 -29.5 C 145.8333 -29.5 141 -24.6667 141 -19.8333 C 141 -19.8333 141 -10.1667 141 -10.1667 C 141 -5.3333 145.8333 -0.5 150.6667 -0.5" style="stroke:#000000;stroke-width:0.5;stroke-dasharray:none;stroke-linecap:butt;stroke-linejoin:miter;stroke-miterlimit:10;fill:#d5a6bd;fill-rule:nonzero;opacity:1" transform=" matrix(1.3333333333333335 0 0 1.3333333333333335 5.333333333333334 309.33333333333337) " stroke-linecap="round"></path>
 <g transform=" matrix(1.3333333333333335 0 0 1.3333333333333335 5.333333333333334 309.33333333333337) ">
 <text font-family="Courier,monospace" font-size="16" font-weight="normal" style="stroke:none;stroke-width:1;stroke-dasharray:none;stroke-linecap:butt;stroke-linejoin:miter;stroke-miterlimit:10;fill:#000000;fill-rule:nonzero;opacity:1">
 <tspan x="150.5" y="-10.72" fill="#000000">9</tspan>
 </text>
 </g>
 <path d="M 155.5 -66.3525 C 155.5 -57.9786 155.5 -47.2929 155.5 -37.8398" style="stroke:#000000;stroke-width:1;stroke-dasharray:none;stroke-linecap:butt;stroke-linejoin:miter;stroke-miterlimit:10;fill:none;fill-rule:nonzero;opacity:1" transform=" matrix(1.3333333333333335 0 0 1.3333333333333335 5.333333333333334 309.33333333333337) " stroke-linecap="round"></path>
 <polygon points="158.3,-37.61 155.5,-29.61 152.7,-37.61 158.3,-37.61 " style="stroke:#000000;stroke-width:1;stroke-dasharray:none;stroke-linecap:butt;stroke-linejoin:miter;stroke-miterlimit:10;fill:#404040;fill-rule:nonzero;opacity:1" transform="  matrix(1.3333333333333335 0 0 1.3333333333333335 5.333333333333334 309.33333333333337) "></polygon>
</g>
 <g transform="translate(211.93 112.47)">
 <text font-family="helvetica" font-size="16" font-weight="normal" style="stroke:none;stroke-width:1;stroke-dasharray:none;stroke-linecap:butt;stroke-linejoin:miter;stroke-miterlimit:10;fill:#000000;fill-rule:nonzero;opacity:1">
<tspan x="-205.43" y="-6.89" style="stroke:none;stroke-width:0;stroke-dasharray:none;stroke-linecap:butt;stroke-linejoin:miter;stroke-miterlimit:4;fill:#000000;opacity:1">O</tspan><tspan x="-192.98" y="-6.89" font-family="helvetica" font-size="16" font-weight="normal" style="stroke:none;stroke-width:0;stroke-dasharray:none;stroke-linecap:butt;stroke-linejoin:miter;stroke-miterlimit:4;fill:#000000;opacity:1">u</tspan><tspan x="-184.08" y="-6.89" font-family="helvetica" font-size="16" font-weight="normal" style="stroke:none;stroke-width:0;stroke-dasharray:none;stroke-linecap:butt;stroke-linejoin:miter;stroke-miterlimit:4;fill:#000000;opacity:1">t</tspan><tspan x="-179.64" y="-6.89" font-family="helvetica" font-size="16" font-weight="normal" style="stroke:none;stroke-width:0;stroke-dasharray:none;stroke-linecap:butt;stroke-linejoin:miter;stroke-miterlimit:4;fill:#000000;opacity:1">p</tspan><tspan x="-170.74" y="-6.89" font-family="helvetica" font-size="16" font-weight="normal" style="stroke:none;stroke-width:0;stroke-dasharray:none;stroke-linecap:butt;stroke-linejoin:miter;stroke-miterlimit:4;fill:#000000;opacity:1">u</tspan><tspan x="-161.84" y="-6.89" font-family="helvetica" font-size="16" font-weight="normal" style="stroke:none;stroke-width:0;stroke-dasharray:none;stroke-linecap:butt;stroke-linejoin:miter;stroke-miterlimit:4;fill:#000000;opacity:1">t</tspan><tspan x="-157.39" y="-6.89" font-family="helvetica" font-size="16" font-weight="normal" style="stroke:none;stroke-width:0;stroke-dasharray:none;stroke-linecap:butt;stroke-linejoin:miter;stroke-miterlimit:4;fill:#000000;opacity:1">:</tspan><tspan x="-152.95" y="-6.89" font-family="helvetica" font-size="16" font-weight="normal" style="stroke:none;stroke-width:0;stroke-dasharray:none;stroke-linecap:butt;stroke-linejoin:miter;stroke-miterlimit:4;fill:#000000;opacity:1"> </tspan><tspan x="-148.5" y="-6.89" font-family="helvetica" font-size="16" font-weight="normal" style="stroke:none;stroke-width:0;stroke-dasharray:none;stroke-linecap:butt;stroke-linejoin:miter;stroke-miterlimit:4;fill:#000000;opacity:1">3</tspan><tspan x="-139.61" y="-6.89" font-family="helvetica" font-size="16" font-weight="normal" style="stroke:none;stroke-width:0;stroke-dasharray:none;stroke-linecap:butt;stroke-linejoin:miter;stroke-miterlimit:4;fill:#000000;opacity:1">1</tspan><tspan x="-205.43" y="14.08" font-family="helvetica" font-size="16" font-weight="normal" style="stroke:none;stroke-width:0;stroke-dasharray:none;stroke-linecap:butt;stroke-linejoin:miter;stroke-miterlimit:4;fill:#000000;opacity:1">E</tspan><tspan x="-194.75" y="14.08" font-family="helvetica" font-size="16" font-weight="normal" style="stroke:none;stroke-width:0;stroke-dasharray:none;stroke-linecap:butt;stroke-linejoin:miter;stroke-miterlimit:4;fill:#000000;opacity:1">x</tspan><tspan x="-186.75" y="14.08" font-family="helvetica" font-size="16" font-weight="normal" style="stroke:none;stroke-width:0;stroke-dasharray:none;stroke-linecap:butt;stroke-linejoin:miter;stroke-miterlimit:4;fill:#000000;opacity:1">p</tspan><tspan x="-177.86" y="14.08" font-family="helvetica" font-size="16" font-weight="normal" style="stroke:none;stroke-width:0;stroke-dasharray:none;stroke-linecap:butt;stroke-linejoin:miter;stroke-miterlimit:4;fill:#000000;opacity:1">l</tspan><tspan x="-174.3" y="14.08" font-family="helvetica" font-size="16" font-weight="normal" style="stroke:none;stroke-width:0;stroke-dasharray:none;stroke-linecap:butt;stroke-linejoin:miter;stroke-miterlimit:4;fill:#000000;opacity:1">a</tspan><tspan x="-165.4" y="14.08" font-family="helvetica" font-size="16" font-weight="normal" style="stroke:none;stroke-width:0;stroke-dasharray:none;stroke-linecap:butt;stroke-linejoin:miter;stroke-miterlimit:4;fill:#000000;opacity:1">n</tspan><tspan x="-156.5" y="14.08" font-family="helvetica" font-size="16" font-weight="normal" style="stroke:none;stroke-width:0;stroke-dasharray:none;stroke-linecap:butt;stroke-linejoin:miter;stroke-miterlimit:4;fill:#000000;opacity:1">a</tspan><tspan x="-147.61" y="14.08" font-family="helvetica" font-size="16" font-weight="normal" style="stroke:none;stroke-width:0;stroke-dasharray:none;stroke-linecap:butt;stroke-linejoin:miter;stroke-miterlimit:4;fill:#000000;opacity:1">t</tspan><tspan x="-143.16" y="14.08" font-family="helvetica" font-size="16" font-weight="normal" style="stroke:none;stroke-width:0;stroke-dasharray:none;stroke-linecap:butt;stroke-linejoin:miter;stroke-miterlimit:4;fill:#000000;opacity:1">i</tspan><tspan x="-139.61" y="14.08" font-family="helvetica" font-size="16" font-weight="normal" style="stroke:none;stroke-width:0;stroke-dasharray:none;stroke-linecap:butt;stroke-linejoin:miter;stroke-miterlimit:4;fill:#000000;opacity:1">o</tspan><tspan x="-130.71" y="14.08" font-family="helvetica" font-size="16" font-weight="normal" style="stroke:none;stroke-width:0;stroke-dasharray:none;stroke-linecap:butt;stroke-linejoin:miter;stroke-miterlimit:4;fill:#000000;opacity:1">n</tspan><tspan x="-121.81" y="14.08" font-family="helvetica" font-size="16" font-weight="normal" style="stroke:none;stroke-width:0;stroke-dasharray:none;stroke-linecap:butt;stroke-linejoin:miter;stroke-miterlimit:4;fill:#000000;opacity:1">:</tspan><tspan x="-117.36" y="14.08" font-family="helvetica" font-size="16" font-weight="normal" style="stroke:none;stroke-width:0;stroke-dasharray:none;stroke-linecap:butt;stroke-linejoin:miter;stroke-miterlimit:4;fill:#000000;opacity:1"> </tspan><tspan x="-112.92" y="14.08" font-family="helvetica" font-size="16" font-weight="normal" style="stroke:none;stroke-width:0;stroke-dasharray:none;stroke-linecap:butt;stroke-linejoin:miter;stroke-miterlimit:4;fill:#000000;opacity:1">T</tspan><tspan x="-103.14" y="14.08" font-family="helvetica" font-size="16" font-weight="normal" style="stroke:none;stroke-width:0;stroke-dasharray:none;stroke-linecap:butt;stroke-linejoin:miter;stroke-miterlimit:4;fill:#000000;opacity:1">h</tspan><tspan x="-94.25" y="14.08" font-family="helvetica" font-size="16" font-weight="normal" style="stroke:none;stroke-width:0;stroke-dasharray:none;stroke-linecap:butt;stroke-linejoin:miter;stroke-miterlimit:4;fill:#000000;opacity:1">e</tspan><tspan x="-85.35" y="14.08" font-family="helvetica" font-size="16" font-weight="normal" style="stroke:none;stroke-width:0;stroke-dasharray:none;stroke-linecap:butt;stroke-linejoin:miter;stroke-miterlimit:4;fill:#000000;opacity:1"> </tspan><tspan x="-80.9" y="14.08" font-family="helvetica" font-size="16" font-weight="normal" style="stroke:none;stroke-width:0;stroke-dasharray:none;stroke-linecap:butt;stroke-linejoin:miter;stroke-miterlimit:4;fill:#000000;opacity:1">p</tspan><tspan x="-72" y="14.08" font-family="helvetica" font-size="16" font-weight="normal" style="stroke:none;stroke-width:0;stroke-dasharray:none;stroke-linecap:butt;stroke-linejoin:miter;stroke-miterlimit:4;fill:#000000;opacity:1">a</tspan><tspan x="-63.11" y="14.08" font-family="helvetica" font-size="16" font-weight="normal" style="stroke:none;stroke-width:0;stroke-dasharray:none;stroke-linecap:butt;stroke-linejoin:miter;stroke-miterlimit:4;fill:#000000;opacity:1">t</tspan><tspan x="-58.66" y="14.08" font-family="helvetica" font-size="16" font-weight="normal" style="stroke:none;stroke-width:0;stroke-dasharray:none;stroke-linecap:butt;stroke-linejoin:miter;stroke-miterlimit:4;fill:#000000;opacity:1">h</tspan><tspan x="-49.76" y="14.08" font-family="helvetica" font-size="16" font-weight="normal" style="stroke:none;stroke-width:0;stroke-dasharray:none;stroke-linecap:butt;stroke-linejoin:miter;stroke-miterlimit:4;fill:#000000;opacity:1"> </tspan><tspan x="-45.32" y="14.08" font-family="helvetica" font-size="16" font-weight="normal" style="stroke:none;stroke-width:0;stroke-dasharray:none;stroke-linecap:butt;stroke-linejoin:miter;stroke-miterlimit:4;fill:#000000;opacity:1">w</tspan><tspan x="-33.76" y="14.08" font-family="helvetica" font-size="16" font-weight="normal" style="stroke:none;stroke-width:0;stroke-dasharray:none;stroke-linecap:butt;stroke-linejoin:miter;stroke-miterlimit:4;fill:#000000;opacity:1">i</tspan><tspan x="-30.21" y="14.08" font-family="helvetica" font-size="16" font-weight="normal" style="stroke:none;stroke-width:0;stroke-dasharray:none;stroke-linecap:butt;stroke-linejoin:miter;stroke-miterlimit:4;fill:#000000;opacity:1">t</tspan><tspan x="-25.76" y="14.08" font-family="helvetica" font-size="16" font-weight="normal" style="stroke:none;stroke-width:0;stroke-dasharray:none;stroke-linecap:butt;stroke-linejoin:miter;stroke-miterlimit:4;fill:#000000;opacity:1">h</tspan><tspan x="-16.86" y="14.08" font-family="helvetica" font-size="16" font-weight="normal" style="stroke:none;stroke-width:0;stroke-dasharray:none;stroke-linecap:butt;stroke-linejoin:miter;stroke-miterlimit:4;fill:#000000;opacity:1"> </tspan><tspan x="-12.42" y="14.08" font-family="helvetica" font-size="16" font-weight="normal" style="stroke:none;stroke-width:0;stroke-dasharray:none;stroke-linecap:butt;stroke-linejoin:miter;stroke-miterlimit:4;fill:#000000;opacity:1">m</tspan><tspan x="0.91" y="14.08" font-family="helvetica" font-size="16" font-weight="normal" style="stroke:none;stroke-width:0;stroke-dasharray:none;stroke-linecap:butt;stroke-linejoin:miter;stroke-miterlimit:4;fill:#000000;opacity:1">a</tspan><tspan x="9.81" y="14.08" font-family="helvetica" font-size="16" font-weight="normal" style="stroke:none;stroke-width:0;stroke-dasharray:none;stroke-linecap:butt;stroke-linejoin:miter;stroke-miterlimit:4;fill:#000000;opacity:1">x</tspan><tspan x="17.81" y="14.08" font-family="helvetica" font-size="16" font-weight="normal" style="stroke:none;stroke-width:0;stroke-dasharray:none;stroke-linecap:butt;stroke-linejoin:miter;stroke-miterlimit:4;fill:#000000;opacity:1">i</tspan><tspan x="21.36" y="14.08" font-family="helvetica" font-size="16" font-weight="normal" style="stroke:none;stroke-width:0;stroke-dasharray:none;stroke-linecap:butt;stroke-linejoin:miter;stroke-miterlimit:4;fill:#000000;opacity:1">m</tspan><tspan x="34.69" y="14.08" font-family="helvetica" font-size="16" font-weight="normal" style="stroke:none;stroke-width:0;stroke-dasharray:none;stroke-linecap:butt;stroke-linejoin:miter;stroke-miterlimit:4;fill:#000000;opacity:1">u</tspan><tspan x="43.59" y="14.08" font-family="helvetica" font-size="16" font-weight="normal" style="stroke:none;stroke-width:0;stroke-dasharray:none;stroke-linecap:butt;stroke-linejoin:miter;stroke-miterlimit:4;fill:#000000;opacity:1">m</tspan><tspan x="56.92" y="14.08" font-family="helvetica" font-size="16" font-weight="normal" style="stroke:none;stroke-width:0;stroke-dasharray:none;stroke-linecap:butt;stroke-linejoin:miter;stroke-miterlimit:4;fill:#000000;opacity:1"> </tspan><tspan x="61.36" y="14.08" font-family="helvetica" font-size="16" font-weight="normal" style="stroke:none;stroke-width:0;stroke-dasharray:none;stroke-linecap:butt;stroke-linejoin:miter;stroke-miterlimit:4;fill:#000000;opacity:1">s</tspan><tspan x="69.36" y="14.08" font-family="helvetica" font-size="16" font-weight="normal" style="stroke:none;stroke-width:0;stroke-dasharray:none;stroke-linecap:butt;stroke-linejoin:miter;stroke-miterlimit:4;fill:#000000;opacity:1">u</tspan><tspan x="78.26" y="14.08" font-family="helvetica" font-size="16" font-weight="normal" style="stroke:none;stroke-width:0;stroke-dasharray:none;stroke-linecap:butt;stroke-linejoin:miter;stroke-miterlimit:4;fill:#000000;opacity:1">m</tspan><tspan x="91.59" y="14.08" font-family="helvetica" font-size="16" font-weight="normal" style="stroke:none;stroke-width:0;stroke-dasharray:none;stroke-linecap:butt;stroke-linejoin:miter;stroke-miterlimit:4;fill:#000000;opacity:1"> </tspan><tspan x="96.04" y="14.08" font-family="helvetica" font-size="16" font-weight="normal" style="stroke:none;stroke-width:0;stroke-dasharray:none;stroke-linecap:butt;stroke-linejoin:miter;stroke-miterlimit:4;fill:#000000;opacity:1">i</tspan><tspan x="99.59" y="14.08" font-family="helvetica" font-size="16" font-weight="normal" style="stroke:none;stroke-width:0;stroke-dasharray:none;stroke-linecap:butt;stroke-linejoin:miter;stroke-miterlimit:4;fill:#000000;opacity:1">s</tspan><tspan x="107.59" y="14.08" font-family="helvetica" font-size="16" font-weight="normal" style="stroke:none;stroke-width:0;stroke-dasharray:none;stroke-linecap:butt;stroke-linejoin:miter;stroke-miterlimit:4;fill:#000000;opacity:1">:</tspan><tspan x="112.04" y="14.08" font-family="helvetica" font-size="16" font-weight="normal" style="stroke:none;stroke-width:0;stroke-dasharray:none;stroke-linecap:butt;stroke-linejoin:miter;stroke-miterlimit:4;fill:#000000;opacity:1"> </tspan><tspan x="116.48" y="14.08" style="stroke:none;stroke-width:0;stroke-dasharray:none;stroke-linecap:butt;stroke-linejoin:miter;stroke-miterlimit:4;fill:#000000;opacity:1">[</tspan><tspan x="120.93" y="14.08" style="stroke:none;stroke-width:0;stroke-dasharray:none;stroke-linecap:butt;stroke-linejoin:miter;stroke-miterlimit:4;fill:#000000;opacity:1">8</tspan><tspan x="129.82" y="14.08" style="stroke:none;stroke-width:0;stroke-dasharray:none;stroke-linecap:butt;stroke-linejoin:miter;stroke-miterlimit:4;fill:#000000;opacity:1">,</tspan><tspan x="134.27" y="14.08" style="stroke:none;stroke-width:0;stroke-dasharray:none;stroke-linecap:butt;stroke-linejoin:miter;stroke-miterlimit:4;fill:#000000;opacity:1"> </tspan><tspan x="138.71" y="14.08" style="stroke:none;stroke-width:0;stroke-dasharray:none;stroke-linecap:butt;stroke-linejoin:miter;stroke-miterlimit:4;fill:#000000;opacity:1">5</tspan><tspan x="147.61" y="14.08" style="stroke:none;stroke-width:0;stroke-dasharray:none;stroke-linecap:butt;stroke-linejoin:miter;stroke-miterlimit:4;fill:#000000;opacity:1">,</tspan><tspan x="152.06" y="14.08" style="stroke:none;stroke-width:0;stroke-dasharray:none;stroke-linecap:butt;stroke-linejoin:miter;stroke-miterlimit:4;fill:#000000;opacity:1"> </tspan><tspan x="156.5" y="14.08" style="stroke:none;stroke-width:0;stroke-dasharray:none;stroke-linecap:butt;stroke-linejoin:miter;stroke-miterlimit:4;fill:#000000;opacity:1">3</tspan><tspan x="165.4" y="14.08" style="stroke:none;stroke-width:0;stroke-dasharray:none;stroke-linecap:butt;stroke-linejoin:miter;stroke-miterlimit:4;fill:#000000;opacity:1">,</tspan><tspan x="169.85" y="14.08" style="stroke:none;stroke-width:0;stroke-dasharray:none;stroke-linecap:butt;stroke-linejoin:miter;stroke-miterlimit:4;fill:#000000;opacity:1"> </tspan><tspan x="174.29" y="14.08" style="stroke:none;stroke-width:0;stroke-dasharray:none;stroke-linecap:butt;stroke-linejoin:miter;stroke-miterlimit:4;fill:#000000;opacity:1">6</tspan><tspan x="183.19" y="14.08" style="stroke:none;stroke-width:0;stroke-dasharray:none;stroke-linecap:butt;stroke-linejoin:miter;stroke-miterlimit:4;fill:#000000;opacity:1">,</tspan><tspan x="187.64" y="14.08" style="stroke:none;stroke-width:0;stroke-dasharray:none;stroke-linecap:butt;stroke-linejoin:miter;stroke-miterlimit:4;fill:#000000;opacity:1"> </tspan><tspan x="192.08" y="14.08" style="stroke:none;stroke-width:0;stroke-dasharray:none;stroke-linecap:butt;stroke-linejoin:miter;stroke-miterlimit:4;fill:#000000;opacity:1">9</tspan><tspan x="200.98" y="14.08" font-family="helvetica" font-size="16" font-weight="normal" style="stroke:none;stroke-width:0;stroke-dasharray:none;stroke-linecap:butt;stroke-linejoin:miter;stroke-miterlimit:4;fill:#000000;opacity:1">]</tspan> </text>
 </g>
</svg>