<svg xmlns="http://www.w3.org/2000/svg" xmlns:xlink="http://www.w3.org/1999/xlink" version="1.1" width="800" height="400" viewBox="0 0 800 400" xml:space="preserve" style="width:100%;height:100%">
<desc>Created with Fabric.js 1.6.0-rc.1</desc>
<defs></defs>
 <g transform="translate(48.74 27.99)">
 <text font-family="helvetica" font-size="16" font-weight="normal" style="stroke:none;stroke-width:1;stroke-dasharray:none;stroke-linecap:butt;stroke-linejoin:miter;stroke-miterlimit:10;fill:#000000;fill-rule:nonzero;opacity:1">
<tspan x="-42.24" y="3.59" font-weight="bold" style="stroke:none;stroke-width:0;stroke-dasharray:none;stroke-linecap:butt;stroke-linejoin:miter;stroke-miterlimit:4;fill:#000000;opacity:1">E</tspan><tspan x="-31.57" y="3.59" font-weight="bold" style="stroke:none;stroke-width:0;stroke-dasharray:none;stroke-linecap:butt;stroke-linejoin:miter;stroke-miterlimit:4;fill:#000000;opacity:1">x</tspan><tspan x="-22.67" y="3.59" font-weight="bold" style="stroke:none;stroke-width:0;stroke-dasharray:none;stroke-linecap:butt;stroke-linejoin:miter;stroke-miterlimit:4;fill:#000000;opacity:1">a</tspan><tspan x="-13.77" y="3.59" font-weight="bold" style="stroke:none;stroke-width:0;stroke-dasharray:none;stroke-linecap:butt;stroke-linejoin:miter;stroke-miterlimit:4;fill:#000000;opacity:1">m</tspan><tspan x="0.45" y="3.59" font-weight="bold" style="stroke:none;stroke-width:0;stroke-dasharray:none;stroke-linecap:butt;stroke-linejoin:miter;stroke-miterlimit:4;fill:#000000;opacity:1">p</tspan><tspan x="10.23" y="3.59" font-weight="bold" style="stroke:none;stroke-width:0;stroke-dasharray:none;stroke-linecap:butt;stroke-linejoin:miter;stroke-miterlimit:4;fill:#000000;opacity:1">l</tspan><tspan x="14.67" y="3.59" font-weight="bold" style="stroke:none;stroke-width:0;stroke-dasharray:none;stroke-linecap:butt;stroke-linejoin:miter;stroke-miterlimit:4;fill:#000000;opacity:1">e</tspan><tspan x="23.57" y="3.59" font-weight="bold" style="stroke:none;stroke-width:0;stroke-dasharray:none;stroke-linecap:butt;stroke-linejoin:miter;stroke-miterlimit:4;fill:#000000;opacity:1"> </tspan><tspan x="28.02" y="3.59" font-weight="bold" style="stroke:none;stroke-width:0;stroke-dasharray:none;stroke-linecap:butt;stroke-linejoin:miter;stroke-miterlimit:4;fill:#000000;opacity:1">2</tspan><tspan x="36.91" y="3.59" font-family="helvetica" font-size="16" font-weight="bold" style="stroke:none;stroke-width:0;stroke-dasharray:none;stroke-linecap:butt;stroke-linejoin:miter;stroke-miterlimit:4;fill:#000000;opacity:1">:</tspan> </text>
 </g>
<g style="stroke:none;stroke-width:1;stroke-dasharray:none;stroke-linecap:butt;stroke-linejoin:miter;stroke-miterlimit:10;fill:none;fill-rule:nonzero;opacity:1" transform="translate(474.67 0)">
 <path d="M 56.6667 -264.5 C 56.6667 -264.5 66.3333 -264.5 66.3333 -264.5 C 71.1667 -264.5 76 -269.3333 76 -274.1667 C 76 -274.1667 76 -283.8333 76 -283.8333 C 76 -288.6667 71.1667 -293.5 66.3333 -293.5 C 66.3333 -293.5 56.6667 -293.5 56.6667 -293.5 C 51.8333 -293.5 47 -288.6667 47 -283.8333 C 47 -283.8333 47 -274.1667 47 -274.1667 C 47 -269.3333 51.8333 -264.5 56.6667 -264.5" style="stroke:#000000;stroke-width:0.5;stroke-dasharray:none;stroke-linecap:butt;stroke-linejoin:miter;stroke-miterlimit:10;fill:#bfefff;fill-rule:nonzero;opacity:1" transform=" matrix(1.3323747903187158 0 0 1.3323747903187158 5.329499161274863 397.04768751497727) " stroke-linecap="round"></path>
 <g transform=" matrix(1.3323747903187158 0 0 1.3323747903187158 5.329499161274863 397.04768751497727) ">
 <text font-family="Courier,monospace" font-size="16" font-weight="normal" style="stroke:none;stroke-width:1;stroke-dasharray:none;stroke-linecap:butt;stroke-linejoin:miter;stroke-miterlimit:10;fill:#000000;fill-rule:nonzero;opacity:1">
 <tspan x="56.5" y="-274.72" fill="#000000">1</tspan>
 </text>
 </g>
 <path d="M 33.6667 -198.5 C 33.6667 -198.5 43.3333 -198.5 43.3333 -198.5 C 48.1667 -198.5 53 -203.3333 53 -208.1667 C 53 -208.1667 53 -217.8333 53 -217.8333 C 53 -222.6667 48.1667 -227.5 43.3333 -227.5 C 43.3333 -227.5 33.6667 -227.5 33.6667 -227.5 C 28.8333 -227.5 24 -222.6667 24 -217.8333 C 24 -217.8333 24 -208.1667 24 -208.1667 C 24 -203.3333 28.8333 -198.5 33.6667 -198.5" style="stroke:#000000;stroke-width:0.5;stroke-dasharray:none;stroke-linecap:butt;stroke-linejoin:miter;stroke-miterlimit:10;fill:#bfefff;fill-rule:nonzero;opacity:1" transform=" matrix(1.3323747903187158 0 0 1.3323747903187158 5.329499161274863 397.04768751497727) " stroke-linecap="round"></path>
 <g transform=" matrix(1.3323747903187158 0 0 1.3323747903187158 5.329499161274863 397.04768751497727) ">
 <text font-family="Courier,monospace" font-size="16" font-weight="normal" style="stroke:none;stroke-width:1;stroke-dasharray:none;stroke-linecap:butt;stroke-linejoin:miter;stroke-miterlimit:10;fill:#000000;fill-rule:nonzero;opacity:1">
 <tspan x="33.5" y="-208.72" fill="#000000">2</tspan>
 </text>
 </g>
 <path d="M 56.3956 -264.3525 C 53.4178 -255.8077 49.6013 -244.8558 46.2582 -235.2626" style="stroke:#000000;stroke-width:1;stroke-dasharray:none;stroke-linecap:butt;stroke-linejoin:miter;stroke-miterlimit:10;fill:none;fill-rule:nonzero;opacity:1" transform=" matrix(1.3323747903187158 0 0 1.3323747903187158 5.329499161274863 397.04768751497727) " stroke-linecap="round"></path>
 <polygon points="48.87,-234.24 43.59,-227.61 43.58,-236.08 48.87,-234.24 " style="stroke:#000000;stroke-width:1;stroke-dasharray:none;stroke-linecap:butt;stroke-linejoin:miter;stroke-miterlimit:10;fill:#404040;fill-rule:nonzero;opacity:1" transform="  matrix(1.3323747903187158 0 0 1.3323747903187158 5.329499161274863 397.04768751497727) "></polygon>
 <path d="M 80.6667 -198.5 C 80.6667 -198.5 90.3333 -198.5 90.3333 -198.5 C 95.1667 -198.5 100 -203.3333 100 -208.1667 C 100 -208.1667 100 -217.8333 100 -217.8333 C 100 -222.6667 95.1667 -227.5 90.3333 -227.5 C 90.3333 -227.5 80.6667 -227.5 80.6667 -227.5 C 75.8333 -227.5 71 -222.6667 71 -217.8333 C 71 -217.8333 71 -208.1667 71 -208.1667 C 71 -203.3333 75.8333 -198.5 80.6667 -198.5" style="stroke:#000000;stroke-width:0.5;stroke-dasharray:none;stroke-linecap:butt;stroke-linejoin:miter;stroke-miterlimit:10;fill:#d5a6bd;fill-rule:nonzero;opacity:1" transform=" matrix(1.3323747903187158 0 0 1.3323747903187158 5.329499161274863 397.04768751497727) " stroke-linecap="round"></path>
 <g transform=" matrix(1.3323747903187158 0 0 1.3323747903187158 5.329499161274863 397.04768751497727) ">
 <text font-family="Courier,monospace" font-size="16" font-weight="normal" style="stroke:none;stroke-width:1;stroke-dasharray:none;stroke-linecap:butt;stroke-linejoin:miter;stroke-miterlimit:10;fill:#000000;fill-rule:nonzero;opacity:1">
 <tspan x="80.5" y="-208.72" fill="#000000">3</tspan>
 </text>
 </g>
 <path d="M 66.8264 -264.3525 C 69.9336 -255.8077 73.9161 -244.8558 77.4045 -235.2626" style="stroke:#000000;stroke-width:1;stroke-dasharray:none;stroke-linecap:butt;stroke-linejoin:miter;stroke-miterlimit:10;fill:none;fill-rule:nonzero;opacity:1" transform=" matrix(1.3323747903187158 0 0 1.3323747903187158 5.329499161274863 397.04768751497727) " stroke-linecap="round"></path>
 <polygon points="80.09,-236.08 80.19,-227.61 74.82,-234.17 80.09,-236.08 " style="stroke:#000000;stroke-width:1;stroke-dasharray:none;stroke-linecap:butt;stroke-linejoin:miter;stroke-miterlimit:10;fill:#404040;fill-rule:nonzero;opacity:1" transform="  matrix(1.3323747903187158 0 0 1.3323747903187158 5.329499161274863 397.04768751497727) "></polygon>
 <path d="M 56.6667 -132.5 C 56.6667 -132.5 66.3333 -132.5 66.3333 -132.5 C 71.1667 -132.5 76 -137.3333 76 -142.1667 C 76 -142.1667 76 -151.8333 76 -151.8333 C 76 -156.6667 71.1667 -161.5 66.3333 -161.5 C 66.3333 -161.5 56.6667 -161.5 56.6667 -161.5 C 51.8333 -161.5 47 -156.6667 47 -151.8333 C 47 -151.8333 47 -142.1667 47 -142.1667 C 47 -137.3333 51.8333 -132.5 56.6667 -132.5" style="stroke:#000000;stroke-width:0.5;stroke-dasharray:none;stroke-linecap:butt;stroke-linejoin:miter;stroke-miterlimit:10;fill:#d5a6bd;fill-rule:nonzero;opacity:1" transform=" matrix(1.3323747903187158 0 0 1.3323747903187158 5.329499161274863 397.04768751497727) " stroke-linecap="round"></path>
 <g transform=" matrix(1.3323747903187158 0 0 1.3323747903187158 5.329499161274863 397.04768751497727) ">
 <text font-family="Courier,monospace" font-size="16" font-weight="normal" style="stroke:none;stroke-width:1;stroke-dasharray:none;stroke-linecap:butt;stroke-linejoin:miter;stroke-miterlimit:10;fill:#000000;fill-rule:nonzero;opacity:1">
 <tspan x="56.5" y="-142.72" fill="#000000">5</tspan>
 </text>
 </g>
 <path d="M 80.1736 -198.3525 C 77.0664 -189.8077 73.0839 -178.8558 69.5955 -169.2626" style="stroke:#000000;stroke-width:1;stroke-dasharray:none;stroke-linecap:butt;stroke-linejoin:miter;stroke-miterlimit:10;fill:none;fill-rule:nonzero;opacity:1" transform=" matrix(1.3323747903187158 0 0 1.3323747903187158 5.329499161274863 397.04768751497727) " stroke-linecap="round"></path>
 <polygon points="72.18,-168.17 66.81,-161.61 66.91,-170.08 72.18,-168.17 " style="stroke:#000000;stroke-width:1;stroke-dasharray:none;stroke-linecap:butt;stroke-linejoin:miter;stroke-miterlimit:10;fill:#404040;fill-rule:nonzero;opacity:1" transform="  matrix(1.3323747903187158 0 0 1.3323747903187158 5.329499161274863 397.04768751497727) "></polygon>
 <path d="M 104.6667 -132.5 C 104.6667 -132.5 114.3333 -132.5 114.3333 -132.5 C 119.1667 -132.5 124 -137.3333 124 -142.1667 C 124 -142.1667 124 -151.8333 124 -151.8333 C 124 -156.6667 119.1667 -161.5 114.3333 -161.5 C 114.3333 -161.5 104.6667 -161.5 104.6667 -161.5 C 99.8333 -161.5 95 -156.6667 95 -151.8333 C 95 -151.8333 95 -142.1667 95 -142.1667 C 95 -137.3333 99.8333 -132.5 104.6667 -132.5" style="stroke:#000000;stroke-width:0.5;stroke-dasharray:none;stroke-linecap:butt;stroke-linejoin:miter;stroke-miterlimit:10;fill:#d5a6bd;fill-rule:nonzero;opacity:1" transform=" matrix(1.3323747903187158 0 0 1.3323747903187158 5.329499161274863 397.04768751497727) " stroke-linecap="round"></path>
 <g transform=" matrix(1.3323747903187158 0 0 1.3323747903187158 5.329499161274863 397.04768751497727) ">
 <text font-family="Courier,monospace" font-size="16" font-weight="normal" style="stroke:none;stroke-width:1;stroke-dasharray:none;stroke-linecap:butt;stroke-linejoin:miter;stroke-miterlimit:10;fill:#000000;fill-rule:nonzero;opacity:1">
 <tspan x="104.5" y="-142.72" fill="#000000">6</tspan>
 </text>
 </g>
 <path d="M 90.8264 -198.3525 C 93.9336 -189.8077 97.9161 -178.8558 101.4045 -169.2626" style="stroke:#000000;stroke-width:1;stroke-dasharray:none;stroke-linecap:butt;stroke-linejoin:miter;stroke-miterlimit:10;fill:none;fill-rule:nonzero;opacity:1" transform=" matrix(1.3323747903187158 0 0 1.3323747903187158 5.329499161274863 397.04768751497727) " stroke-linecap="round"></path>
 <polygon points="104.09,-170.08 104.19,-161.61 98.82,-168.17 104.09,-170.08 " style="stroke:#000000;stroke-width:1;stroke-dasharray:none;stroke-linecap:butt;stroke-linejoin:miter;stroke-miterlimit:10;fill:#404040;fill-rule:nonzero;opacity:1" transform="  matrix(1.3323747903187158 0 0 1.3323747903187158 5.329499161274863 397.04768751497727) "></polygon>
 <path d="M 9.6667 -66.5 C 9.6667 -66.5 19.3333 -66.5 19.3333 -66.5 C 24.1667 -66.5 29 -71.3333 29 -76.1667 C 29 -76.1667 29 -85.8333 29 -85.8333 C 29 -90.6667 24.1667 -95.5 19.3333 -95.5 C 19.3333 -95.5 9.6667 -95.5 9.6667 -95.5 C 4.8333 -95.5 0 -90.6667 0 -85.8333 C 0 -85.8333 0 -76.1667 0 -76.1667 C 0 -71.3333 4.8333 -66.5 9.6667 -66.5" style="stroke:#000000;stroke-width:0.5;stroke-dasharray:none;stroke-linecap:butt;stroke-linejoin:miter;stroke-miterlimit:10;fill:#bfefff;fill-rule:nonzero;opacity:1" transform=" matrix(1.3323747903187158 0 0 1.3323747903187158 5.329499161274863 397.04768751497727) " stroke-linecap="round"></path>
 <g transform=" matrix(1.3323747903187158 0 0 1.3323747903187158 5.329499161274863 397.04768751497727) ">
 <text font-family="Courier,monospace" font-size="16" font-weight="normal" style="stroke:none;stroke-width:1;stroke-dasharray:none;stroke-linecap:butt;stroke-linejoin:miter;stroke-miterlimit:10;fill:#000000;fill-rule:nonzero;opacity:1">
 <tspan x="9.5" y="-76.72" fill="#000000">7</tspan>
 </text>
 </g>
 <path d="M 51.0692 -132.3525 C 44.8017 -123.5513 36.7157 -112.1965 29.7415 -102.403" style="stroke:#000000;stroke-width:1;stroke-dasharray:none;stroke-linecap:butt;stroke-linejoin:miter;stroke-miterlimit:10;fill:none;fill-rule:nonzero;opacity:1" transform=" matrix(1.3323747903187158 0 0 1.3323747903187158 5.329499161274863 397.04768751497727) " stroke-linecap="round"></path>
 <polygon points="31.82,-100.5 24.9,-95.61 27.26,-103.75 31.82,-100.5 " style="stroke:#000000;stroke-width:1;stroke-dasharray:none;stroke-linecap:butt;stroke-linejoin:miter;stroke-miterlimit:10;fill:#404040;fill-rule:nonzero;opacity:1" transform="  matrix(1.3323747903187158 0 0 1.3323747903187158 5.329499161274863 397.04768751497727) "></polygon>
 <path d="M 56.6667 -66.5 C 56.6667 -66.5 66.3333 -66.5 66.3333 -66.5 C 71.1667 -66.5 76 -71.3333 76 -76.1667 C 76 -76.1667 76 -85.8333 76 -85.8333 C 76 -90.6667 71.1667 -95.5 66.3333 -95.5 C 66.3333 -95.5 56.6667 -95.5 56.6667 -95.5 C 51.8333 -95.5 47 -90.6667 47 -85.8333 C 47 -85.8333 47 -76.1667 47 -76.1667 C 47 -71.3333 51.8333 -66.5 56.6667 -66.5" style="stroke:#000000;stroke-width:0.5;stroke-dasharray:none;stroke-linecap:butt;stroke-linejoin:miter;stroke-miterlimit:10;fill:#d5a6bd;fill-rule:nonzero;opacity:1" transform=" matrix(1.3323747903187158 0 0 1.3323747903187158 5.329499161274863 397.04768751497727) " stroke-linecap="round"></path>
 <g transform=" matrix(1.3323747903187158 0 0 1.3323747903187158 5.329499161274863 397.04768751497727) ">
 <text font-family="Courier,monospace" font-size="16" font-weight="normal" style="stroke:none;stroke-width:1;stroke-dasharray:none;stroke-linecap:butt;stroke-linejoin:miter;stroke-miterlimit:10;fill:#000000;fill-rule:nonzero;opacity:1">
 <tspan x="56.5" y="-76.72" fill="#000000">8</tspan>
 </text>
 </g>
 <path d="M 61.5 -132.3525 C 61.5 -123.9786 61.5 -113.2929 61.5 -103.8398" style="stroke:#000000;stroke-width:1;stroke-dasharray:none;stroke-linecap:butt;stroke-linejoin:miter;stroke-miterlimit:10;fill:none;fill-rule:nonzero;opacity:1" transform=" matrix(1.3323747903187158 0 0 1.3323747903187158 5.329499161274863 397.04768751497727) " stroke-linecap="round"></path>
 <polygon points="64.3,-103.61 61.5,-95.61 58.7,-103.61 64.3,-103.61 " style="stroke:#000000;stroke-width:1;stroke-dasharray:none;stroke-linecap:butt;stroke-linejoin:miter;stroke-miterlimit:10;fill:#404040;fill-rule:nonzero;opacity:1" transform="  matrix(1.3323747903187158 0 0 1.3323747903187158 5.329499161274863 397.04768751497727) "></polygon>
 <path d="M 52.5683 -0.5 C 52.5683 -0.5 68.4317 -0.5 68.4317 -0.5 C 73.2651 -0.5 78.0984 -5.3333 78.0984 -10.1667 C 78.0984 -10.1667 78.0984 -19.8333 78.0984 -19.8333 C 78.0984 -24.6667 73.2651 -29.5 68.4317 -29.5 C 68.4317 -29.5 52.5683 -29.5 52.5683 -29.5 C 47.7349 -29.5 42.9016 -24.6667 42.9016 -19.8333 C 42.9016 -19.8333 42.9016 -10.1667 42.9016 -10.1667 C 42.9016 -5.3333 47.7349 -0.5 52.5683 -0.5" style="stroke:#000000;stroke-width:0.5;stroke-dasharray:none;stroke-linecap:butt;stroke-linejoin:miter;stroke-miterlimit:10;fill:#d5a6bd;fill-rule:nonzero;opacity:1" transform=" matrix(1.3323747903187158 0 0 1.3323747903187158 5.329499161274863 397.04768751497727) " stroke-linecap="round"></path>
 <g transform=" matrix(1.3323747903187158 0 0 1.3323747903187158 5.329499161274863 397.04768751497727) ">
 <text font-family="Courier,monospace" font-size="16" font-weight="normal" style="stroke:none;stroke-width:1;stroke-dasharray:none;stroke-linecap:butt;stroke-linejoin:miter;stroke-miterlimit:10;fill:#000000;fill-rule:nonzero;opacity:1">
 <tspan x="50.9" y="-10.72" fill="#000000">10</tspan>
 </text>
 </g>
 <path d="M 61.2781 -66.3525 C 61.1512 -57.9786 60.9893 -47.2929 60.8461 -37.8398" style="stroke:#000000;stroke-width:1;stroke-dasharray:none;stroke-linecap:butt;stroke-linejoin:miter;stroke-miterlimit:10;fill:none;fill-rule:nonzero;opacity:1" transform=" matrix(1.3323747903187158 0 0 1.3323747903187158 5.329499161274863 397.04768751497727) " stroke-linecap="round"></path>
 <polygon points="63.64,-37.56 60.72,-29.61 58.04,-37.65 63.64,-37.56 " style="stroke:#000000;stroke-width:1;stroke-dasharray:none;stroke-linecap:butt;stroke-linejoin:miter;stroke-miterlimit:10;fill:#404040;fill-rule:nonzero;opacity:1" transform="  matrix(1.3323747903187158 0 0 1.3323747903187158 5.329499161274863 397.04768751497727) "></polygon>
 <path d="M 105.6667 -66.5 C 105.6667 -66.5 115.3333 -66.5 115.3333 -66.5 C 120.1667 -66.5 125 -71.3333 125 -76.1667 C 125 -76.1667 125 -85.8333 125 -85.8333 C 125 -90.6667 120.1667 -95.5 115.3333 -95.5 C 115.3333 -95.5 105.6667 -95.5 105.6667 -95.5 C 100.8333 -95.5 96 -90.6667 96 -85.8333 C 96 -85.8333 96 -76.1667 96 -76.1667 C 96 -71.3333 100.8333 -66.5 105.6667 -66.5" style="stroke:#000000;stroke-width:0.5;stroke-dasharray:none;stroke-linecap:butt;stroke-linejoin:miter;stroke-miterlimit:10;fill:#d5a6bd;fill-rule:nonzero;opacity:1" transform=" matrix(1.3323747903187158 0 0 1.3323747903187158 5.329499161274863 397.04768751497727) " stroke-linecap="round"></path>
 <g transform=" matrix(1.3323747903187158 0 0 1.3323747903187158 5.329499161274863 397.04768751497727) ">
 <text font-family="Courier,monospace" font-size="16" font-weight="normal" style="stroke:none;stroke-width:1;stroke-dasharray:none;stroke-linecap:butt;stroke-linejoin:miter;stroke-miterlimit:10;fill:#000000;fill-rule:nonzero;opacity:1">
 <tspan x="105.5" y="-76.72" fill="#000000">9</tspan>
 </text>
 </g>
 <path d="M 109.7219 -132.3525 C 109.8488 -123.9786 110.0107 -113.2929 110.1539 -103.8398" style="stroke:#000000;stroke-width:1;stroke-dasharray:none;stroke-linecap:butt;stroke-linejoin:miter;stroke-miterlimit:10;fill:none;fill-rule:nonzero;opacity:1" transform=" matrix(1.3323747903187158 0 0 1.3323747903187158 5.329499161274863 397.04768751497727) " stroke-linecap="round"></path>
 <polygon points="112.96,-103.65 110.28,-95.61 107.36,-103.56 112.96,-103.65 " style="stroke:#000000;stroke-width:1;stroke-dasharray:none;stroke-linecap:butt;stroke-linejoin:miter;stroke-miterlimit:10;fill:#404040;fill-rule:nonzero;opacity:1" transform="  matrix(1.3323747903187158 0 0 1.3323747903187158 5.329499161274863 397.04768751497727) "></polygon>
 <path d="M 105.5683 -0.5 C 105.5683 -0.5 121.4317 -0.5 121.4317 -0.5 C 126.2651 -0.5 131.0984 -5.3333 131.0984 -10.1667 C 131.0984 -10.1667 131.0984 -19.8333 131.0984 -19.8333 C 131.0984 -24.6667 126.2651 -29.5 121.4317 -29.5 C 121.4317 -29.5 105.5683 -29.5 105.5683 -29.5 C 100.7349 -29.5 95.9016 -24.6667 95.9016 -19.8333 C 95.9016 -19.8333 95.9016 -10.1667 95.9016 -10.1667 C 95.9016 -5.3333 100.7349 -0.5 105.5683 -0.5" style="stroke:#000000;stroke-width:0.5;stroke-dasharray:none;stroke-linecap:butt;stroke-linejoin:miter;stroke-miterlimit:10;fill:#d5a6bd;fill-rule:nonzero;opacity:1" transform=" matrix(1.3323747903187158 0 0 1.3323747903187158 5.329499161274863 397.04768751497727) " stroke-linecap="round"></path>
 <g transform=" matrix(1.3323747903187158 0 0 1.3323747903187158 5.329499161274863 397.04768751497727) ">
 <text font-family="Courier,monospace" font-size="16" font-weight="normal" style="stroke:none;stroke-width:1;stroke-dasharray:none;stroke-linecap:butt;stroke-linejoin:miter;stroke-miterlimit:10;fill:#000000;fill-rule:nonzero;opacity:1">
 <tspan x="103.9" y="-10.72" fill="#000000">11</tspan>
 </text>
 </g>
 <path d="M 111.1658 -66.3525 C 111.5464 -57.9786 112.0321 -47.2929 112.4618 -37.8398" style="stroke:#000000;stroke-width:1;stroke-dasharray:none;stroke-linecap:butt;stroke-linejoin:miter;stroke-miterlimit:10;fill:none;fill-rule:nonzero;opacity:1" transform=" matrix(1.3323747903187158 0 0 1.3323747903187158 5.329499161274863 397.04768751497727) " stroke-linecap="round"></path>
 <polygon points="115.27,-37.73 112.84,-29.61 109.68,-37.47 115.27,-37.73 " style="stroke:#000000;stroke-width:1;stroke-dasharray:none;stroke-linecap:butt;stroke-linejoin:miter;stroke-miterlimit:10;fill:#404040;fill-rule:nonzero;opacity:1" transform="  matrix(1.3323747903187158 0 0 1.3323747903187158 5.329499161274863 397.04768751497727) "></polygon>
</g>
 <g transform="translate(223.52 112.47)">
 <text font-family="helvetica" font-size="16" font-weight="normal" style="stroke:none;stroke-width:1;stroke-dasharray:none;stroke-linecap:butt;stroke-linejoin:miter;stroke-miterlimit:10;fill:#000000;fill-rule:nonzero;opacity:1">
<tspan x="-217.02" y="-6.89" style="stroke:none;stroke-width:0;stroke-dasharray:none;stroke-linecap:butt;stroke-linejoin:miter;stroke-miterlimit:4;fill:#000000;opacity:1">O</tspan><tspan x="-204.57" y="-6.89" font-family="helvetica" font-size="16" font-weight="normal" style="stroke:none;stroke-width:0;stroke-dasharray:none;stroke-linecap:butt;stroke-linejoin:miter;stroke-miterlimit:4;fill:#000000;opacity:1">u</tspan><tspan x="-195.67" y="-6.89" font-family="helvetica" font-size="16" font-weight="normal" style="stroke:none;stroke-width:0;stroke-dasharray:none;stroke-linecap:butt;stroke-linejoin:miter;stroke-miterlimit:4;fill:#000000;opacity:1">t</tspan><tspan x="-191.23" y="-6.89" font-family="helvetica" font-size="16" font-weight="normal" style="stroke:none;stroke-width:0;stroke-dasharray:none;stroke-linecap:butt;stroke-linejoin:miter;stroke-miterlimit:4;fill:#000000;opacity:1">p</tspan><tspan x="-182.33" y="-6.89" font-family="helvetica" font-size="16" font-weight="normal" style="stroke:none;stroke-width:0;stroke-dasharray:none;stroke-linecap:butt;stroke-linejoin:miter;stroke-miterlimit:4;fill:#000000;opacity:1">u</tspan><tspan x="-173.43" y="-6.89" font-family="helvetica" font-size="16" font-weight="normal" style="stroke:none;stroke-width:0;stroke-dasharray:none;stroke-linecap:butt;stroke-linejoin:miter;stroke-miterlimit:4;fill:#000000;opacity:1">t</tspan><tspan x="-168.98" y="-6.89" font-family="helvetica" font-size="16" font-weight="normal" style="stroke:none;stroke-width:0;stroke-dasharray:none;stroke-linecap:butt;stroke-linejoin:miter;stroke-miterlimit:4;fill:#000000;opacity:1">:</tspan><tspan x="-164.54" y="-6.89" font-family="helvetica" font-size="16" font-weight="normal" style="stroke:none;stroke-width:0;stroke-dasharray:none;stroke-linecap:butt;stroke-linejoin:miter;stroke-miterlimit:4;fill:#000000;opacity:1"> </tspan><tspan x="-160.09" y="-6.89" font-family="helvetica" font-size="16" font-weight="normal" style="stroke:none;stroke-width:0;stroke-dasharray:none;stroke-linecap:butt;stroke-linejoin:miter;stroke-miterlimit:4;fill:#000000;opacity:1">7</tspan><tspan x="-217.02" y="14.08" font-family="helvetica" font-size="16" font-weight="normal" style="stroke:none;stroke-width:0;stroke-dasharray:none;stroke-linecap:butt;stroke-linejoin:miter;stroke-miterlimit:4;fill:#000000;opacity:1">E</tspan><tspan x="-206.34" y="14.08" font-family="helvetica" font-size="16" font-weight="normal" style="stroke:none;stroke-width:0;stroke-dasharray:none;stroke-linecap:butt;stroke-linejoin:miter;stroke-miterlimit:4;fill:#000000;opacity:1">x</tspan><tspan x="-198.34" y="14.08" font-family="helvetica" font-size="16" font-weight="normal" style="stroke:none;stroke-width:0;stroke-dasharray:none;stroke-linecap:butt;stroke-linejoin:miter;stroke-miterlimit:4;fill:#000000;opacity:1">p</tspan><tspan x="-189.45" y="14.08" font-family="helvetica" font-size="16" font-weight="normal" style="stroke:none;stroke-width:0;stroke-dasharray:none;stroke-linecap:butt;stroke-linejoin:miter;stroke-miterlimit:4;fill:#000000;opacity:1">l</tspan><tspan x="-185.89" y="14.08" font-family="helvetica" font-size="16" font-weight="normal" style="stroke:none;stroke-width:0;stroke-dasharray:none;stroke-linecap:butt;stroke-linejoin:miter;stroke-miterlimit:4;fill:#000000;opacity:1">a</tspan><tspan x="-176.99" y="14.08" font-family="helvetica" font-size="16" font-weight="normal" style="stroke:none;stroke-width:0;stroke-dasharray:none;stroke-linecap:butt;stroke-linejoin:miter;stroke-miterlimit:4;fill:#000000;opacity:1">i</tspan><tspan x="-173.44" y="14.08" font-family="helvetica" font-size="16" font-weight="normal" style="stroke:none;stroke-width:0;stroke-dasharray:none;stroke-linecap:butt;stroke-linejoin:miter;stroke-miterlimit:4;fill:#000000;opacity:1">n</tspan><tspan x="-164.54" y="14.08" font-family="helvetica" font-size="16" font-weight="normal" style="stroke:none;stroke-width:0;stroke-dasharray:none;stroke-linecap:butt;stroke-linejoin:miter;stroke-miterlimit:4;fill:#000000;opacity:1">a</tspan><tspan x="-155.64" y="14.08" font-family="helvetica" font-size="16" font-weight="normal" style="stroke:none;stroke-width:0;stroke-dasharray:none;stroke-linecap:butt;stroke-linejoin:miter;stroke-miterlimit:4;fill:#000000;opacity:1">t</tspan><tspan x="-151.2" y="14.08" font-family="helvetica" font-size="16" font-weight="normal" style="stroke:none;stroke-width:0;stroke-dasharray:none;stroke-linecap:butt;stroke-linejoin:miter;stroke-miterlimit:4;fill:#000000;opacity:1">i</tspan><tspan x="-147.64" y="14.08" font-family="helvetica" font-size="16" font-weight="normal" style="stroke:none;stroke-width:0;stroke-dasharray:none;stroke-linecap:butt;stroke-linejoin:miter;stroke-miterlimit:4;fill:#000000;opacity:1">o</tspan><tspan x="-138.74" y="14.08" font-family="helvetica" font-size="16" font-weight="normal" style="stroke:none;stroke-width:0;stroke-dasharray:none;stroke-linecap:butt;stroke-linejoin:miter;stroke-miterlimit:4;fill:#000000;opacity:1">n</tspan><tspan x="-129.84" y="14.08" font-family="helvetica" font-size="16" font-weight="normal" style="stroke:none;stroke-width:0;stroke-dasharray:none;stroke-linecap:butt;stroke-linejoin:miter;stroke-miterlimit:4;fill:#000000;opacity:1">:</tspan><tspan x="-125.4" y="14.08" font-family="helvetica" font-size="16" font-weight="normal" style="stroke:none;stroke-width:0;stroke-dasharray:none;stroke-linecap:butt;stroke-linejoin:miter;stroke-miterlimit:4;fill:#000000;opacity:1"> </tspan><tspan x="-120.95" y="14.08" font-family="helvetica" font-size="16" font-weight="normal" style="stroke:none;stroke-width:0;stroke-dasharray:none;stroke-linecap:butt;stroke-linejoin:miter;stroke-miterlimit:4;fill:#000000;opacity:1">T</tspan><tspan x="-111.18" y="14.08" font-family="helvetica" font-size="16" font-weight="normal" style="stroke:none;stroke-width:0;stroke-dasharray:none;stroke-linecap:butt;stroke-linejoin:miter;stroke-miterlimit:4;fill:#000000;opacity:1">h</tspan><tspan x="-102.28" y="14.08" font-family="helvetica" font-size="16" font-weight="normal" style="stroke:none;stroke-width:0;stroke-dasharray:none;stroke-linecap:butt;stroke-linejoin:miter;stroke-miterlimit:4;fill:#000000;opacity:1">e</tspan><tspan x="-93.38" y="14.08" font-family="helvetica" font-size="16" font-weight="normal" style="stroke:none;stroke-width:0;stroke-dasharray:none;stroke-linecap:butt;stroke-linejoin:miter;stroke-miterlimit:4;fill:#000000;opacity:1"> </tspan><tspan x="-88.94" y="14.08" font-family="helvetica" font-size="16" font-weight="normal" style="stroke:none;stroke-width:0;stroke-dasharray:none;stroke-linecap:butt;stroke-linejoin:miter;stroke-miterlimit:4;fill:#000000;opacity:1">d</tspan><tspan x="-80.04" y="14.08" font-family="helvetica" font-size="16" font-weight="normal" style="stroke:none;stroke-width:0;stroke-dasharray:none;stroke-linecap:butt;stroke-linejoin:miter;stroke-miterlimit:4;fill:#000000;opacity:1">i</tspan><tspan x="-76.48" y="14.08" font-family="helvetica" font-size="16" font-weight="normal" style="stroke:none;stroke-width:0;stroke-dasharray:none;stroke-linecap:butt;stroke-linejoin:miter;stroke-miterlimit:4;fill:#000000;opacity:1">a</tspan><tspan x="-67.59" y="14.08" font-family="helvetica" font-size="16" font-weight="normal" style="stroke:none;stroke-width:0;stroke-dasharray:none;stroke-linecap:butt;stroke-linejoin:miter;stroke-miterlimit:4;fill:#000000;opacity:1">m</tspan><tspan x="-54.26" y="14.08" font-family="helvetica" font-size="16" font-weight="normal" style="stroke:none;stroke-width:0;stroke-dasharray:none;stroke-linecap:butt;stroke-linejoin:miter;stroke-miterlimit:4;fill:#000000;opacity:1">e</tspan><tspan x="-45.36" y="14.08" font-family="helvetica" font-size="16" font-weight="normal" style="stroke:none;stroke-width:0;stroke-dasharray:none;stroke-linecap:butt;stroke-linejoin:miter;stroke-miterlimit:4;fill:#000000;opacity:1">t</tspan><tspan x="-40.91" y="14.08" font-family="helvetica" font-size="16" font-weight="normal" style="stroke:none;stroke-width:0;stroke-dasharray:none;stroke-linecap:butt;stroke-linejoin:miter;stroke-miterlimit:4;fill:#000000;opacity:1">e</tspan><tspan x="-32.02" y="14.08" font-family="helvetica" font-size="16" font-weight="normal" style="stroke:none;stroke-width:0;stroke-dasharray:none;stroke-linecap:butt;stroke-linejoin:miter;stroke-miterlimit:4;fill:#000000;opacity:1">r</tspan><tspan x="-26.69" y="14.08" font-family="helvetica" font-size="16" font-weight="normal" style="stroke:none;stroke-width:0;stroke-dasharray:none;stroke-linecap:butt;stroke-linejoin:miter;stroke-miterlimit:4;fill:#000000;opacity:1"> </tspan><tspan x="-22.24" y="14.08" font-family="helvetica" font-size="16" font-weight="normal" style="stroke:none;stroke-width:0;stroke-dasharray:none;stroke-linecap:butt;stroke-linejoin:miter;stroke-miterlimit:4;fill:#000000;opacity:1">o</tspan><tspan x="-13.34" y="14.08" font-family="helvetica" font-size="16" font-weight="normal" style="stroke:none;stroke-width:0;stroke-dasharray:none;stroke-linecap:butt;stroke-linejoin:miter;stroke-miterlimit:4;fill:#000000;opacity:1">f</tspan><tspan x="-8.9" y="14.08" font-family="helvetica" font-size="16" font-weight="normal" style="stroke:none;stroke-width:0;stroke-dasharray:none;stroke-linecap:butt;stroke-linejoin:miter;stroke-miterlimit:4;fill:#000000;opacity:1"> </tspan><tspan x="-4.45" y="14.08" font-family="helvetica" font-size="16" font-weight="normal" style="stroke:none;stroke-width:0;stroke-dasharray:none;stroke-linecap:butt;stroke-linejoin:miter;stroke-miterlimit:4;fill:#000000;opacity:1">t</tspan><tspan x="-0.01" y="14.08" font-family="helvetica" font-size="16" font-weight="normal" style="stroke:none;stroke-width:0;stroke-dasharray:none;stroke-linecap:butt;stroke-linejoin:miter;stroke-miterlimit:4;fill:#000000;opacity:1">h</tspan><tspan x="8.89" y="14.08" font-family="helvetica" font-size="16" font-weight="normal" style="stroke:none;stroke-width:0;stroke-dasharray:none;stroke-linecap:butt;stroke-linejoin:miter;stroke-miterlimit:4;fill:#000000;opacity:1">e</tspan><tspan x="17.79" y="14.08" font-family="helvetica" font-size="16" font-weight="normal" style="stroke:none;stroke-width:0;stroke-dasharray:none;stroke-linecap:butt;stroke-linejoin:miter;stroke-miterlimit:4;fill:#000000;opacity:1"> </tspan><tspan x="22.23" y="14.08" font-family="helvetica" font-size="16" font-weight="normal" style="stroke:none;stroke-width:0;stroke-dasharray:none;stroke-linecap:butt;stroke-linejoin:miter;stroke-miterlimit:4;fill:#000000;opacity:1">t</tspan><tspan x="26.68" y="14.08" font-family="helvetica" font-size="16" font-weight="normal" style="stroke:none;stroke-width:0;stroke-dasharray:none;stroke-linecap:butt;stroke-linejoin:miter;stroke-miterlimit:4;fill:#000000;opacity:1">r</tspan><tspan x="32.01" y="14.08" font-family="helvetica" font-size="16" font-weight="normal" style="stroke:none;stroke-width:0;stroke-dasharray:none;stroke-linecap:butt;stroke-linejoin:miter;stroke-miterlimit:4;fill:#000000;opacity:1">e</tspan><tspan x="40.91" y="14.08" font-family="helvetica" font-size="16" font-weight="normal" style="stroke:none;stroke-width:0;stroke-dasharray:none;stroke-linecap:butt;stroke-linejoin:miter;stroke-miterlimit:4;fill:#000000;opacity:1">e</tspan><tspan x="49.8" y="14.08" font-family="helvetica" font-size="16" font-weight="normal" style="stroke:none;stroke-width:0;stroke-dasharray:none;stroke-linecap:butt;stroke-linejoin:miter;stroke-miterlimit:4;fill:#000000;opacity:1"> </tspan><tspan x="54.25" y="14.08" font-family="helvetica" font-size="16" font-weight="normal" style="stroke:none;stroke-width:0;stroke-dasharray:none;stroke-linecap:butt;stroke-linejoin:miter;stroke-miterlimit:4;fill:#000000;opacity:1">i</tspan><tspan x="57.8" y="14.08" font-family="helvetica" font-size="16" font-weight="normal" style="stroke:none;stroke-width:0;stroke-dasharray:none;stroke-linecap:butt;stroke-linejoin:miter;stroke-miterlimit:4;fill:#000000;opacity:1">s</tspan><tspan x="65.8" y="14.08" font-family="helvetica" font-size="16" font-weight="normal" style="stroke:none;stroke-width:0;stroke-dasharray:none;stroke-linecap:butt;stroke-linejoin:miter;stroke-miterlimit:4;fill:#000000;opacity:1">:</tspan><tspan x="70.25" y="14.08" font-family="helvetica" font-size="16" font-weight="normal" style="stroke:none;stroke-width:0;stroke-dasharray:none;stroke-linecap:butt;stroke-linejoin:miter;stroke-miterlimit:4;fill:#000000;opacity:1"> </tspan><tspan x="74.7" y="14.08" style="stroke:none;stroke-width:0;stroke-dasharray:none;stroke-linecap:butt;stroke-linejoin:miter;stroke-miterlimit:4;fill:#000000;opacity:1">[</tspan><tspan x="79.14" y="14.08" style="stroke:none;stroke-width:0;stroke-dasharray:none;stroke-linecap:butt;stroke-linejoin:miter;stroke-miterlimit:4;fill:#000000;opacity:1">1</tspan><tspan x="88.04" y="14.08" style="stroke:none;stroke-width:0;stroke-dasharray:none;stroke-linecap:butt;stroke-linejoin:miter;stroke-miterlimit:4;fill:#000000;opacity:1">0</tspan><tspan x="96.94" y="14.08" style="stroke:none;stroke-width:0;stroke-dasharray:none;stroke-linecap:butt;stroke-linejoin:miter;stroke-miterlimit:4;fill:#000000;opacity:1">,</tspan><tspan x="101.38" y="14.08" style="stroke:none;stroke-width:0;stroke-dasharray:none;stroke-linecap:butt;stroke-linejoin:miter;stroke-miterlimit:4;fill:#000000;opacity:1"> </tspan><tspan x="105.83" y="14.08" style="stroke:none;stroke-width:0;stroke-dasharray:none;stroke-linecap:butt;stroke-linejoin:miter;stroke-miterlimit:4;fill:#000000;opacity:1">8</tspan><tspan x="114.73" y="14.08" style="stroke:none;stroke-width:0;stroke-dasharray:none;stroke-linecap:butt;stroke-linejoin:miter;stroke-miterlimit:4;fill:#000000;opacity:1">,</tspan><tspan x="119.17" y="14.08" style="stroke:none;stroke-width:0;stroke-dasharray:none;stroke-linecap:butt;stroke-linejoin:miter;stroke-miterlimit:4;fill:#000000;opacity:1"> </tspan><tspan x="123.62" y="14.08" style="stroke:none;stroke-width:0;stroke-dasharray:none;stroke-linecap:butt;stroke-linejoin:miter;stroke-miterlimit:4;fill:#000000;opacity:1">5</tspan><tspan x="132.52" y="14.08" style="stroke:none;stroke-width:0;stroke-dasharray:none;stroke-linecap:butt;stroke-linejoin:miter;stroke-miterlimit:4;fill:#000000;opacity:1">,</tspan><tspan x="136.96" y="14.08" style="stroke:none;stroke-width:0;stroke-dasharray:none;stroke-linecap:butt;stroke-linejoin:miter;stroke-miterlimit:4;fill:#000000;opacity:1"> </tspan><tspan x="141.41" y="14.08" style="stroke:none;stroke-width:0;stroke-dasharray:none;stroke-linecap:butt;stroke-linejoin:miter;stroke-miterlimit:4;fill:#000000;opacity:1">3</tspan><tspan x="150.3" y="14.08" style="stroke:none;stroke-width:0;stroke-dasharray:none;stroke-linecap:butt;stroke-linejoin:miter;stroke-miterlimit:4;fill:#000000;opacity:1">,</tspan><tspan x="154.75" y="14.08" style="stroke:none;stroke-width:0;stroke-dasharray:none;stroke-linecap:butt;stroke-linejoin:miter;stroke-miterlimit:4;fill:#000000;opacity:1"> </tspan><tspan x="159.2" y="14.08" style="stroke:none;stroke-width:0;stroke-dasharray:none;stroke-linecap:butt;stroke-linejoin:miter;stroke-miterlimit:4;fill:#000000;opacity:1">6</tspan><tspan x="168.09" y="14.08" style="stroke:none;stroke-width:0;stroke-dasharray:none;stroke-linecap:butt;stroke-linejoin:miter;stroke-miterlimit:4;fill:#000000;opacity:1">,</tspan><tspan x="172.54" y="14.08" style="stroke:none;stroke-width:0;stroke-dasharray:none;stroke-linecap:butt;stroke-linejoin:miter;stroke-miterlimit:4;fill:#000000;opacity:1"> </tspan><tspan x="176.98" y="14.08" style="stroke:none;stroke-width:0;stroke-dasharray:none;stroke-linecap:butt;stroke-linejoin:miter;stroke-miterlimit:4;fill:#000000;opacity:1">9</tspan><tspan x="185.88" y="14.08" style="stroke:none;stroke-width:0;stroke-dasharray:none;stroke-linecap:butt;stroke-linejoin:miter;stroke-miterlimit:4;fill:#000000;opacity:1">,</tspan><tspan x="190.33" y="14.08" style="stroke:none;stroke-width:0;stroke-dasharray:none;stroke-linecap:butt;stroke-linejoin:miter;stroke-miterlimit:4;fill:#000000;opacity:1"> </tspan><tspan x="194.77" y="14.08" style="stroke:none;stroke-width:0;stroke-dasharray:none;stroke-linecap:butt;stroke-linejoin:miter;stroke-miterlimit:4;fill:#000000;opacity:1">1</tspan><tspan x="203.67" y="14.08" style="stroke:none;stroke-width:0;stroke-dasharray:none;stroke-linecap:butt;stroke-linejoin:miter;stroke-miterlimit:4;fill:#000000;opacity:1">1</tspan><tspan x="212.57" y="14.08" font-family="helvetica" font-size="16" font-weight="normal" style="stroke:none;stroke-width:0;stroke-dasharray:none;stroke-linecap:butt;stroke-linejoin:miter;stroke-miterlimit:4;fill:#000000;opacity:1">]</tspan> </text>
 </g>
</svg>